<svg width="447" height="614" viewBox="0 0 447 614" fill="none" xmlns="http://www.w3.org/2000/svg">
<g clip-path="url(#clip0_37_232)">
<path fill-rule="evenodd" clip-rule="evenodd" d="M167.355 212.239L170.65 214.475C172.069 215.234 172.266 215.224 173.285 213.872C174.217 212.639 174.615 211.096 175.44 209.812C175.954 209.013 176.241 208.608 177.066 208.123C177.861 207.656 178.407 206.905 178.48 205.989C178.601 204.482 181.404 204.848 180.632 201.68C180.254 200.129 180.264 198.683 181.341 197.428C181.632 197.089 183.695 196.045 183.945 196.171C184.51 196.452 184.107 197.108 186.259 197.828C187.8 198.341 188.227 199.352 190.101 198.041C191.066 197.365 191.122 196.597 192.374 195.776C193.621 194.957 194.155 194.199 195.725 194.053C197.671 193.872 199.278 192.496 199.535 195.357C199.797 198.276 200.937 196.847 202.514 197.985C203.206 198.487 203.201 200.008 203.485 200.929C203.929 202.372 204.213 203.247 204.24 204.778C204.269 206.374 204.958 207.658 203.917 209.049C203.148 210.076 202.76 211.597 203.308 212.784C203.745 213.729 203.919 214.274 204.468 215.263C204.584 215.473 204.679 215.674 204.781 215.893C205.489 217.615 207.062 219.778 208.673 220.791C209.488 221.302 210.345 222.084 211.235 222.62C212.089 223.133 213.058 224.061 212.203 225.006C210.939 226.406 210.493 227.659 211.956 229.093C212.757 229.878 214.429 231.552 214.021 232.773C213.623 233.972 213.375 235.336 212.999 236.411C212.592 237.586 212.745 237.727 213.043 238.783C213.446 240.205 214.674 239.296 215.224 242.257C215.715 244.895 218.437 247.303 220.776 245.227C222.594 243.613 224.663 245.668 226.26 245.777C229.116 245.968 230.815 244.013 231.904 241.629C232.29 240.784 233.338 239.168 234.462 239.759C235.66 240.391 236.857 241.218 238.087 241.707C239.945 242.448 241.045 243.633 242.066 245.29C242.554 246.08 243.857 247.535 244.697 247.855C245.063 247.996 245.456 248.124 245.827 248.26C247.798 248.291 247.317 248.01 248.783 247.402C249.617 247.056 250.971 246.801 251.556 246.215C251.91 245.862 251.153 243.427 251.19 242.753C251.224 242.128 250.86 241.285 251.015 240.246C251.258 238.611 250.513 237.998 251.027 235.721C251.335 234.355 251.333 231.77 250.401 230.609C249.6 229.611 246.723 227.947 246.473 226.951C246.339 226.428 246.388 225.82 246.529 225.302C247.701 223.337 248.035 223.943 249.892 224.202C251.187 224.383 253.398 225.459 254.429 226.297C255.143 226.876 256.244 227.15 256.436 225.878C256.579 224.933 257.154 221.973 258.319 221.806C259.69 221.607 260.17 228.805 261.847 225.83C262.881 223.993 263.342 223.143 265.678 223.116C266.581 223.107 267.379 223.458 267.821 222.191C268.095 221.406 268.156 220.769 268.532 219.834C269.386 217.712 269.791 215.396 272.004 214.206C272.968 213.688 274.028 214.066 275.292 213.778C278.138 213.131 278.017 212.625 281.269 212.641C282.12 212.646 282.775 212.574 283.676 212.608C286.505 212.726 287.728 213.506 290.487 211.585C292.355 210.284 294.175 205.556 295.752 204.996C297.174 204.492 297.133 207.058 297.344 207.988C297.511 208.729 297.795 210.764 298.48 211.142C299.746 211.844 300.588 210.214 302.003 209.839C302.952 209.587 302.99 209.579 303.925 209.533C305.453 209.456 305.662 209.41 307.052 210.081C307.174 210.139 307.982 210.711 308.11 210.72C307.237 211.183 306.339 211.559 305.856 212.218C304.551 214.001 308.164 217.009 308.86 218.625C310.238 221.825 308.232 223.187 306.016 225.156C305.621 225.6 301.326 228 303.794 228.809C305.031 229.214 307.569 226.828 308.63 227.884C311.554 230.798 307.014 231.903 307.567 233.79C308.057 235.466 310.561 236.251 310.896 238.507C311.153 240.246 307.644 238.671 308.227 240.646C309.202 243.943 308.067 245.144 304.788 245.249C303.66 245.285 302.6 245.069 302.088 246.23C301.845 246.78 303.102 247.85 303.158 248.572L302.267 250.266C300.875 250.922 298.569 252.499 297.135 252.763C296.019 252.969 294.381 252.058 293.335 252.47C292.015 252.991 292.493 253.972 291.676 254.757C290.494 255.891 289.514 254.398 288.264 256.303C286.908 258.371 287.687 259.701 284.794 260.074C281.545 260.491 285.413 264.268 286.728 264.643C288.482 266.392 291.132 266.983 289.019 269.835C287.306 272.146 282.766 273.975 281.754 276.608C281.154 278.166 281.798 280.155 281.283 281.773C280.652 283.759 278.781 286.562 277.461 288.217C275.105 290.775 274.53 292.645 270.49 291.339C267.738 290.448 266.557 289.627 263.485 290.307C256.543 291.846 260.282 298.253 258.688 302.212C257.47 305.237 254.376 306.606 254.007 310.376C253.912 311.335 250.874 312.716 250.032 313.762C249.814 314.857 247.815 317.784 249.503 318.571C250.782 319.167 252.427 319.777 253.364 320.882C255.225 323.079 258.945 326.187 255.3 328.714C254.361 329.366 253.112 328.83 252.066 328.983C250.729 329.179 249.253 330.558 248.091 330.531C245.34 331.907 244.041 333.147 243.646 336.173C243.413 337.944 242.413 340.967 241.278 342.406C240.593 343.273 241.639 344.519 242.171 345.195C243.054 346.319 243.774 347.864 244.726 348.811C246.126 350.209 246.771 352.07 248.055 353.557L250.008 358.455C248.72 358.843 246.672 362.484 246.046 363.531C245.439 364.546 245.721 365.706 245.158 366.677C243.709 369.178 238.218 371.038 237.507 373.807C237.405 374.202 237.383 374.599 237.42 374.999L232.642 377.402C230.038 378.272 228.82 374.987 226.139 374.381C222.989 373.669 219.779 376.334 217.059 376.082C215.431 375.929 213.788 376.794 214.45 378.754C214.996 380.37 217.018 380.394 218.34 381.184C221.628 383.148 218.039 385.723 215.465 385.726C210.602 385.731 210.447 381.629 210.442 377.836C210.442 376.925 211.308 371.242 208.569 373.504C207.508 374.381 206.496 373.226 205.749 374.219C204.703 375.609 204.696 375.522 203.019 376.06C201.585 376.52 202.74 377.954 201.716 378.822C200.775 379.619 198.712 379.229 197.475 380.517C196.727 381.266 195.529 382.828 195.4 383.902C195.276 384.934 195.288 386.545 194.187 387.019C190.901 388.429 192.942 391.474 191.105 393.165C189.877 394.297 187.97 395.082 186.298 394.861C183.357 394.473 184.233 396.167 183.095 398.068L179.087 395.966C177.17 394.885 176.651 394.781 175.879 392.734C175.161 390.825 173.78 391.801 172.671 390.779C170.378 388.659 172.438 384.9 168.303 384.403C166.156 384.144 166.704 380.314 165.36 379.33C163.368 377.872 163.526 374.485 161.735 373.785C159.517 372.918 158.969 373.414 158.141 370.762C158.141 368.649 159.325 367.896 160.633 369.781C162.123 371.927 162.8 367.729 162.946 367.286C163.252 366.35 165.139 365.364 165.081 364.732C164.936 363.17 161.686 365.311 160.956 365.536C157.889 366.484 158.12 363.189 158.607 361.266C159.835 356.433 153.293 361.801 153.737 357.264C153.927 355.328 155.302 355.212 156.584 354.175C157.321 353.576 153.213 352.571 152.665 352.101C151.405 351.026 150.209 346.963 149.869 345.337C149.869 344.15 149.489 342.387 150.964 341.895C152.898 341.248 152.393 340.17 152 338.392C151.102 334.332 149.486 332.888 146.087 330.592C143.573 328.893 142.389 334.976 141.042 330.953C140.734 330.03 140.709 328.31 141.454 327.6C142.408 326.689 143.248 326.265 141.986 325.226C141.394 324.736 141.561 324.189 141.42 323.506C141.061 321.759 139.04 322.91 139.251 320.066C139.123 318.651 136.885 318.29 135.985 317.665C134.653 316.742 134.956 314.826 134.022 313.661C131.562 310.586 128.177 315.296 125.77 312.302C124.947 311.277 123.052 308.559 122.826 307.318C122.154 303.612 123.962 303.438 125.134 300.46C125.862 298.612 125.427 297.241 125.724 295.356C125.833 293.91 127.08 291.746 127.975 290.605C129.198 289.048 129.506 286.729 130.763 285.167L130.61 285.024L132.867 287.158C135.502 290.392 135.621 294.455 140.205 295.758C144.951 297.108 150.673 297.054 155.608 297.049C157.724 297.049 165.79 297.997 167.212 297.008C168.117 296.558 167.675 294.905 167.386 294.22C167.221 293.827 166.852 293.479 166.673 293.064C166.35 292.311 165.71 291.538 165.632 290.722C164.819 286.884 160.929 285.697 159.423 282.507C158.457 280.462 157.731 275.002 160.692 274.227C162.764 273.684 164.499 274.597 166.032 272.589C167.464 270.712 166.474 265.661 166.765 263.27C168.112 259.384 167.925 254.893 166.547 251.043C165.377 247.78 163.671 243.437 164.46 239.946C165.217 237.034 164.39 234.875 163.028 232.409C161.497 229.633 163.535 228.095 164.239 225.73C164.669 224.284 164.266 222.399 164.263 220.893C164.263 218.274 164.754 216.675 166.156 214.512C166.535 213.753 166.94 213.002 167.335 212.251L167.355 212.239Z" fill="#7FE37D" stroke="white" stroke-miterlimit="10"/>
<path fill-rule="evenodd" clip-rule="evenodd" d="M167.355 212.239L170.65 214.475C172.069 215.234 172.266 215.224 173.285 213.872C174.217 212.639 174.615 211.096 175.44 209.812C175.954 209.013 176.241 208.608 177.066 208.123C177.861 207.656 178.407 206.905 178.48 205.989C178.602 204.482 181.404 204.848 180.632 201.68C180.254 200.129 180.264 198.683 181.341 197.428C181.632 197.089 183.695 196.045 183.945 196.171C184.51 196.452 184.107 197.108 186.259 197.828C187.8 198.341 188.227 199.352 190.101 198.041C191.066 197.365 191.122 196.597 192.374 195.776C193.621 194.957 194.155 194.199 195.725 194.053C197.671 193.872 199.278 192.496 199.535 195.357C199.797 198.276 200.937 196.847 202.515 197.985C203.206 198.487 203.201 200.008 203.485 200.929C203.929 202.372 204.213 203.247 204.24 204.778C204.269 206.374 204.958 207.658 203.917 209.049C203.148 210.076 202.76 211.597 203.308 212.784C203.745 213.729 203.919 214.274 204.468 215.263C204.584 215.473 204.679 215.674 204.781 215.893C205.489 217.615 207.062 219.778 208.673 220.791C209.488 221.302 210.345 222.084 211.235 222.62C212.089 223.133 213.058 224.061 212.203 225.006C210.939 226.406 210.493 227.659 211.956 229.093C212.757 229.878 214.429 231.552 214.021 232.773C213.623 233.972 213.375 235.336 212.999 236.411C212.592 237.586 212.745 237.727 213.043 238.783C213.446 240.205 214.674 239.297 215.224 242.257C215.715 244.895 218.437 247.303 220.776 245.227C222.594 243.613 224.664 245.668 226.26 245.777C229.116 245.968 230.815 244.013 231.904 241.629C232.29 240.784 233.338 239.168 234.462 239.759C235.66 240.391 236.857 241.218 238.087 241.707C239.946 242.448 241.045 243.633 242.066 245.29C242.554 246.08 243.857 247.535 244.697 247.855C245.063 247.996 245.456 248.124 245.827 248.26C247.798 248.291 247.317 248.01 248.783 247.402C249.617 247.056 250.971 246.801 251.556 246.215C251.91 245.862 251.153 243.427 251.19 242.753C251.224 242.128 250.86 241.285 251.015 240.246C251.258 238.611 250.513 237.998 251.027 235.721C251.335 234.355 251.333 231.77 250.401 230.609C249.6 229.611 246.723 227.947 246.473 226.951C246.339 226.428 246.388 225.82 246.529 225.302C247.701 223.337 248.035 223.943 249.892 224.202C251.187 224.383 253.398 225.459 254.429 226.297C255.143 226.876 256.244 227.15 256.436 225.878C256.579 224.933 257.154 221.973 258.319 221.806C259.69 221.607 260.17 228.805 261.847 225.83C262.881 223.993 263.342 223.143 265.678 223.116C266.581 223.107 267.379 223.458 267.821 222.191C268.095 221.406 268.156 220.769 268.532 219.834C269.386 217.712 269.791 215.396 272.004 214.206C272.968 213.688 274.028 214.066 275.292 213.778C278.138 213.131 278.017 212.625 281.269 212.642C282.12 212.646 282.775 212.574 283.676 212.608C286.505 212.726 287.728 213.506 290.487 211.585C292.355 210.284 294.175 205.556 295.752 204.996C297.174 204.492 297.133 207.058 297.344 207.988C297.511 208.729 297.795 210.764 298.48 211.142C299.746 211.844 300.588 210.214 302.003 209.839C302.952 209.587 302.99 209.579 303.925 209.533C305.453 209.456 305.662 209.41 307.052 210.081C307.174 210.139 307.982 210.711 308.11 210.72C308.741 210.389 309.358 210.011 309.802 209.453C310.881 208.094 311.357 205.248 309.768 204.022C307.242 202.074 302.842 204.012 301.724 201.299C301.503 197.586 304.985 197.36 304.983 194.204C304.978 188.794 301.423 195.27 300.411 192.99C299.654 191.282 299.557 189.376 298.715 187.532C297.036 183.86 293.76 185.742 290.877 185.105C289.446 184.787 288.718 183 287.226 182.29C285.656 181.541 283.139 182.547 283.841 179.828C283.841 177.125 283.702 176.003 282.174 173.864C280.926 172.122 281.725 170.267 282.673 168.641C283.292 167.58 283.947 167.219 282.198 166.652C280.759 166.187 280.643 164.186 282.225 164.012C285.617 163.636 283.659 162.52 283.023 160.746C282.674 159.775 283.008 158.641 282.841 157.602L283.353 154.881C279.966 155.899 276.537 156.732 274.887 155.947C273.598 155.334 272.703 156.245 271.504 156.306C269.25 156.698 267.35 156.429 265.865 154.591C264.332 152.694 262.458 156.136 260.821 156.139C259.75 156.139 257.79 156.24 256.814 155.964C255.587 155.615 253.393 155.54 253.311 154.336C253.238 153.273 252.571 153.207 251.826 153.951C250.891 154.886 249.389 154.961 248.147 155.141C243.687 155.79 239.373 154.46 235.09 156.546C232.472 158.297 232.011 158.224 229.718 156.759C227.651 155.436 225.505 156.793 223.394 154.479C219.852 150.598 213.099 154.157 208.731 151.437C207.416 150.618 206.227 149.736 204.664 149.511L199.115 148.714L193.917 145.068C192.352 143.97 189.581 144.506 188.337 143.5C187.55 142.866 187.211 141.698 186.167 141.456C184.495 141.066 183.45 141.964 181.686 141.4C179.72 140.773 178.461 143.59 176.791 143.156C175.966 142.941 175.28 142.006 174.624 141.911L174.476 141.763C174.476 141.654 174.491 141.708 174.418 141.645C174.105 138.2 172.671 134.583 173.249 131.092L171.351 129.866C169.81 129.193 168.493 128.604 169.155 130.995C169.672 132.865 167.508 132.42 166.724 133.876C165.418 136.305 166.023 138.73 166.85 141.206C167.704 143.762 169.468 146.257 167.748 148.922C166.365 150.262 163.841 151.48 162.082 152.311C159.119 153.709 156.183 153.362 154.756 156.858C153.638 159.6 155.118 162.522 156.336 164.959L156.933 167.747C157.452 172.125 157.62 174.794 156.467 179.114C155.958 181.028 155.858 182.573 156.353 184.514C156.785 186.2 157.959 189.279 159.059 190.594C159.825 192.462 162.172 197.527 163.992 198.366C165.263 198.949 169.57 197.852 169.869 198.332C170.798 199.834 169.893 205.437 169.461 207.205C169.027 208.983 168.209 210.624 167.352 212.249L167.355 212.239Z" fill="#C397E6" stroke="white" stroke-miterlimit="10"/>
<path fill-rule="evenodd" clip-rule="evenodd" d="M156.935 167.74C157.455 172.118 157.622 174.787 156.47 179.107C155.96 181.02 155.86 182.566 156.355 184.506C156.787 186.192 157.962 189.271 159.061 190.587C159.828 192.455 162.174 197.52 163.994 198.358C165.266 198.942 169.573 197.845 169.871 198.324C170.8 199.826 169.895 205.427 169.463 207.198C168.83 209.8 167.374 212.096 166.175 214.502C164.771 216.665 164.28 218.264 164.283 220.883C164.283 222.387 164.688 224.272 164.259 225.721C163.555 228.085 161.517 229.623 163.048 232.4C164.409 234.866 165.236 237.024 164.479 239.936C163.691 243.427 165.397 247.77 166.566 251.034C167.944 254.883 168.131 259.374 166.785 263.26C166.493 265.651 167.483 270.702 166.052 272.58C164.521 274.588 162.783 273.674 160.711 274.217C157.751 274.992 158.476 280.455 159.442 282.497C160.949 285.688 164.838 286.875 165.651 290.712C165.729 291.528 166.367 292.304 166.692 293.055C166.872 293.471 167.241 293.82 167.406 294.21C167.694 294.898 168.136 296.548 167.231 296.999C165.809 297.984 157.743 297.037 155.628 297.04C150.692 297.045 144.97 297.098 140.224 295.748C135.641 294.445 135.522 290.383 132.887 287.149L130.63 285.014L128.373 283.801C124.377 283.803 121.235 284.774 117.541 282.594C114.95 281.066 112.075 282.776 109.35 282.778C103.094 282.783 100.117 278.808 98.1829 273.619C97.5447 272.708 96.9502 270.116 96.6663 268.96C96.3242 267.565 95.5186 266.62 94.616 265.578C92.4345 263.064 87.8 265.13 85.1478 265.319C82.4617 265.511 81.0131 264.854 78.7055 263.662C77.3054 262.938 75.8228 262.516 74.43 261.768L70.123 260.452C69.5576 259.265 68.7035 258.354 68.8176 256.581C69.099 252.24 70.0211 246.591 64.7119 245.101C63.1032 245.101 60.0337 247.238 59.0437 246.084C57.7504 244.578 56.1634 246.731 55.0351 244.752C54.2684 243.408 53.2589 244.331 52.6329 245.496C51.6477 247.325 51.3881 247.114 50.7621 245.348C49.6871 242.317 48.9058 242.652 46.0401 241.939C44.9676 241.673 43.0847 240.118 42.2087 239.391C39.0397 236.753 34.5143 240.338 30.9013 238.836C28.8436 237.812 27.361 235.2 25.6431 233.676C23.304 231.603 22.6124 231.121 19.3197 230.508C17.4003 230.149 16.9199 229.006 15.9032 227.484C14.5589 225.471 12.5158 225.243 10.7056 224.018C9.37593 223.116 6.54908 218.998 6.45687 217.433C5.91819 215.822 3.88722 213.015 2.77104 211.619C1.31029 209.795 -1.66943 207.271 1.57963 205.449C2.92876 204.691 4.04737 202.772 4.78017 201.44C5.81871 199.553 5.46444 196.13 6.97129 194.998L10.2931 192.503C10.7202 191.701 11.6762 191.5 11.7151 190.454C11.749 189.557 13.2583 188.927 13.9693 188.671C15.2116 188.22 14.5492 184.492 13.7582 183.627C13.1758 182.99 11.322 181.265 12.1518 180.306C12.8628 179.484 16.6166 178.683 17.7886 178.193C21.0109 176.851 21.1614 178.641 23.1317 180.71C24.1945 181.825 23.765 183.506 23.8475 184.865C24.3376 186.093 25.25 185.381 26.4293 185.931C27.3028 186.338 29.3556 187.05 30.1976 186.522C30.8042 186.142 31.8816 184.882 31.4424 184.087C30.8334 182.99 28.7175 182.825 30.3723 181.626C30.962 181.197 30.8625 180.676 31.2313 180.141C32.0781 178.91 33.124 178.28 34.524 178.952C35.2374 179.293 36.9457 179.773 36.9869 178.564C37.0233 177.45 36.225 176.212 37.5474 175.982C38.3045 175.851 37.9284 174.564 37.9915 174.111C38.1249 172.498 39.7119 173.445 40.2457 172.476L41.4905 170.218C42.432 168.513 38.5447 168.506 41.2503 165.797C41.8836 165.163 41.3158 163.181 41.158 162.415C40.6218 159.801 40.8499 160.918 42.2524 159.15C43.9606 157.001 41.9709 155.208 41.061 153.275C40.8086 152.742 39.9812 150.392 41.3255 151.732C41.9636 152.367 42.5678 152.607 43.4341 152.265C45.5354 151.432 44.5017 150.627 47.2024 151.579C47.9789 151.853 51.6769 152.89 52.0117 153.326C52.9556 154.562 52.5286 154.753 54.2975 154.244C55.5641 153.878 56.1853 152.922 57.2335 152.313C59.7498 150.853 62.2199 152.689 64.0592 151.032C66.3886 150.887 67.5728 151.693 69.0772 153.282C70.965 155.276 72.2874 152.653 73.292 153.605C74.2165 154.482 75.3739 155.422 76.5581 154.167C77.2253 153.459 78.128 150.681 79.2854 151.197C80.4113 151.698 83.0513 154.431 83.8885 154.397C85.8855 154.317 85.1672 154.925 86.5309 155.492C86.6935 155.56 88.8579 153.583 88.6347 153.026C88.2853 152.154 87.8994 152.376 88.6031 151.306C91.5489 150.32 89.8431 149.959 89.9353 147.655C89.9668 146.846 92.2162 144.922 92.9587 144.922C93.6963 144.922 94.1768 145.017 94.4752 144.891L96.1034 145.78C97.5253 145.722 100.124 145.593 101.447 145.983C102.907 146.412 102.073 147.514 102.815 148.387C103.752 149.491 108.597 149.087 110.027 149.123C110.519 149.135 113.858 149.477 114.093 149.714C114.217 149.838 112.55 154.312 112.703 155.354C112.917 156.8 115.68 157.798 116.447 159.474L119.359 163.566C120.599 165.31 124.343 160 125.918 162.968C126.459 163.988 127.626 162.805 128.262 163.44C129.196 164.37 128.604 167.382 130.431 167.919C132.435 168.51 132.576 165.783 133.872 165.691C134.262 165.664 134.891 167.057 135.536 167.263C136.965 167.716 138.703 165.286 139.78 167.021C140.93 168.876 141.139 168.45 143.371 168.799C144.09 169.058 145.803 170.492 146.4 170.041C148.181 168.697 149.185 167.806 151.592 168.079C153.623 168.309 154.938 168.079 156.933 167.747L156.935 167.74Z" fill="#E89DB4" stroke="white" stroke-miterlimit="10"/>
<path fill-rule="evenodd" clip-rule="evenodd" d="M283.355 154.876L282.843 157.597C283.008 158.636 282.676 159.77 283.025 160.741C283.661 162.515 285.619 163.631 282.227 164.007C280.645 164.181 280.761 166.185 282.2 166.648C283.952 167.212 283.297 167.575 282.676 168.636C281.727 170.262 280.929 172.118 282.176 173.859C283.707 175.996 283.841 177.12 283.843 179.824C283.142 182.542 285.658 181.536 287.228 182.285C288.723 182.997 289.448 184.785 290.88 185.1C293.763 185.737 297.038 183.852 298.717 187.527C299.559 189.371 299.656 191.277 300.414 192.985C301.425 195.262 304.98 188.789 304.985 194.199C304.987 197.355 301.508 197.578 301.726 201.294C302.845 204.008 307.244 202.07 309.77 204.017C311.359 205.243 310.884 208.09 309.804 209.449C308.746 210.779 306.686 211.081 305.859 212.213C304.553 213.996 308.166 217.004 308.863 218.62C310.241 221.82 308.234 223.182 306.019 225.151C305.623 225.595 301.328 227.995 303.796 228.805C305.034 229.209 307.572 226.823 308.632 227.879C311.556 230.793 307.016 231.898 307.569 233.785C308.059 235.462 310.564 236.247 310.898 238.502C311.156 240.241 307.647 238.667 308.229 240.641C309.205 243.938 308.069 245.14 304.791 245.244C303.663 245.28 302.602 245.065 302.09 246.225C301.848 246.775 303.105 247.846 303.16 248.567L302.27 250.261C303.694 251.472 305.269 251.811 306.812 252.72C308.661 253.807 310.826 256.157 311.651 252.834C312.034 251.288 314.417 248.669 316.127 248.735C319.406 248.858 314.577 254.217 313.521 254.849C310.949 256.395 315.873 256.155 314.8 258.972C314.371 260.096 311.575 257.119 312.131 259.626C312.366 260.695 311.612 261.891 312.49 262.296C315.4 263.636 311.054 263.875 311.129 266.184C311.182 267.853 313.051 271.378 314.281 272.444C314.543 273.406 314.81 274.045 314.075 274.847C313.293 275.702 313.432 276.424 313.81 277.369C313.963 277.749 314.024 278.185 314.08 278.585C314.162 279.186 314.235 279.166 314.985 279.699C314.975 279.331 315.04 278.982 315.535 278.878C316.72 278.629 317.731 280.034 318.889 280.034C319.52 280.034 319.799 279.505 320.432 279.883C322.577 281.167 322.143 278.556 322.3 277.359C322.516 275.736 323.317 274.564 323.633 272.936C323.152 270.85 320.124 268.355 321.905 266.111C323.536 264.059 326.668 267.361 328.139 267.797C330.405 268.468 332.783 268.452 335.234 269.246C337.306 269.917 342.576 270.828 344.136 268.854C346.493 265.872 346.274 263.214 347.897 260.096C349.205 257.587 347.922 257.371 347.597 255.111C347.584 255.031 349.936 253.102 350.091 255.968C350.14 256.862 351.261 260.484 351.877 260.864C352.787 261.426 356.601 263.183 357.518 263.262C360.571 263.26 357.201 255.135 357.332 253.381C357.407 252.373 359.081 253.686 359.35 253.853C360.476 254.558 361.719 255.319 362.973 255.808C365.07 256.627 366.467 253.168 366.712 256.993C366.8 258.354 366.982 258.529 367.931 259.425C369.001 260.435 369.67 261.133 370.071 262.599C371.379 267.407 374.353 258.313 374.606 256.957L375.817 250.457C376.338 248.882 375.12 246.998 374.715 245.532C374.15 243.487 373.417 242.845 375.661 241.939C376.268 241.695 377.304 240.74 377.857 241.462C378.379 242.145 379.517 244.236 380.648 243.805C381.815 243.359 379.325 239.779 379.071 239.296C378.515 238.245 377.777 237.763 379.663 238.02C380.645 238.153 381.912 237.351 382.72 237.899C383.246 238.255 383.29 238.764 384.025 238.698C387.66 239.345 393.447 240.212 394.321 235.069C394.411 234.541 394.408 233.376 395.209 233.407C396.267 233.449 397.626 234.33 397.344 232.308C397.143 230.859 395.918 228.679 396.095 227.353C396.252 226.164 395.811 222.206 397.395 222.753C399.002 223.308 403.998 228.041 403.867 223.935C403.867 222.012 403.889 217.969 403.149 216.22C402.154 213.872 404.233 212.162 403.974 210.224C403.796 208.908 402.717 207.637 402.901 206.338C403.306 203.48 405.708 205.505 406.698 203.635C407.312 202.474 406.854 200.737 406.873 199.509C406.745 198.104 406.708 197.6 407.523 196.394C408.089 195.558 408.649 194.829 408.678 193.751C408.766 190.584 404.995 190.907 404.607 188.206C404.435 186.997 405.75 185.16 404.723 184.259C404.078 183.692 403.508 183.043 404.9 182.864C405.876 182.738 406.929 183.537 407.72 183.128C409.477 183.128 410.326 182.282 411.52 183.925C412.119 184.749 413.449 185.674 414.519 185.405C416.645 184.872 416.497 188.736 419.122 188.399C420.775 188.186 423.024 188.467 424.077 187.207C424.994 186.11 425.742 186.34 426.955 186.968C428.896 187.971 429.241 182.249 428.85 180.972C428.321 179.252 424.339 179.778 425.048 177.978C426.501 174.288 422.366 177.803 421.988 175.458C421.563 172.825 423.269 170.087 420.44 168.99C419.185 168.937 416.492 168.554 415.808 167.452C414.781 165.79 413.4 166.439 411.86 166.001C410.797 165.698 410.127 164.693 408.742 164.431C407.133 164.128 404.67 164.075 403.428 162.953C401.19 160.928 401.972 160.383 398.381 160.138C395.326 159.93 394.229 156.904 391.729 155.545C389.956 154.581 388.189 154.557 386.534 153.828L381.815 153.951C380.342 153.99 379.723 155.695 377.928 154.903C375.084 153.648 370.148 154.746 366.887 154.675C364.347 154.62 362.158 155.678 359.765 155.751C358.829 155.78 358.067 154.952 357.242 155.337C355.973 155.933 357.196 157.612 354.959 157.861C354.044 157.963 352.255 157.016 351.544 157.626C350.307 158.69 349.167 159.644 347.541 160.153C346.131 160.913 343.183 157.2 343.353 156.596C344.173 153.685 340.06 156.233 339.05 157.076C337.811 158.111 335.158 157.793 333.562 158.297C329.614 159.545 331.274 156.567 328.338 156.936C326.275 157.195 326.571 155.38 325.22 155.337C323.73 155.288 322.14 154.775 320.886 154.777C318.52 154.777 318.156 154.792 316.018 153.922C315.103 153.549 313.958 153.99 313.199 153.626C312.415 153.251 312.548 151.839 311.624 151.698C310.318 151.499 309.294 152.401 308.033 152.294C302.326 152.98 296.534 151.926 290.822 152.754C289.121 153.001 286.253 154.009 283.355 154.879V154.876Z" fill="#DDC492" stroke="white" stroke-miterlimit="10"/>
<path fill-rule="evenodd" clip-rule="evenodd" d="M369.928 504.783C370.136 502.026 372.022 500.577 371.049 497.423C370.423 495.393 368.646 493.186 367.843 496.418C367.353 498.387 367.016 500.139 367.018 502.234C367.018 503.482 367.198 504.671 367.2 505.914C367.2 507.595 366.312 508.979 366.314 510.723C366.314 511.806 367.452 511.224 367.797 510.662C368.079 510.204 369.039 507.433 369.039 507.041L369.928 504.785V504.783ZM325.714 443.81C324.608 444.009 323.087 444.259 322.155 444.881C321.121 445.572 320.481 447.791 322.334 447.788C322.689 447.788 323.072 447.786 323.402 447.67C323.698 447.565 323.967 447.364 324.232 447.253C324.504 447.139 324.928 447.389 325.241 447.372C325.719 447.342 326.256 446.57 326.547 446.243L325.714 443.81ZM335.556 431.397L338.825 436.676C338.961 438.282 339.339 442.609 338.298 443.978C337.046 445.62 335.527 444.561 333.906 444.457C329.636 444.179 329.264 437.008 327.605 434.372C326.782 433.067 325.904 431.637 326.413 430.041C326.935 428.408 328.284 428.001 329.437 427.01C330.779 425.86 331.13 424.806 332.463 426.77C333.419 428.178 334.44 430.201 335.554 431.397H335.556ZM321.354 411.586C320.114 411.278 319.43 410.816 318.088 410.818C316.892 410.818 314.111 412.354 313.876 413.553C313.497 415.479 315.56 416.46 317.025 417.112C318.168 417.621 319.008 417.432 319.995 418.415C321.036 419.457 322.805 420.661 324.329 419.539C325.232 418.873 324.889 417.853 325.098 416.928C325.382 415.675 324.712 415.06 324.263 414.021L321.354 411.591V411.586ZM320.003 426.305C319.796 425.416 319.939 424.392 319.762 423.517C318.576 423.011 317.731 423.415 316.795 424.113C315.079 425.392 311.985 425.896 312.109 428.687C312.158 429.765 312.779 430.591 312.825 431.712C312.847 432.277 312.886 432.81 312.886 433.374C312.886 433.934 313.138 434.021 313.242 434.443C315.108 434.707 316.467 434.474 318.107 433.488C319.935 432.388 320 430.414 320.121 428.442L320 426.305H320.003ZM289.007 477.256C287.522 476.786 287.279 475.48 285.384 475.952C284.294 476.226 284.554 477.188 284.554 478.031C284.554 479.189 283.87 480 283.608 481.059C283.409 481.861 283.826 482.895 284.382 483.491C285.124 484.288 286.75 481.75 287.823 481.529C288.791 481.33 290.13 481.364 290.909 481.941C291.608 482.459 291.683 483.14 292.751 482.83C293.301 482.67 294.153 482.203 294.114 481.522C294.071 480.756 292.836 480.642 292.333 480.219C291.688 479.673 289.958 478.939 289.958 477.905L289.007 477.253V477.256ZM298.12 447.217L300.615 448.995C300.617 452.762 303.721 456.102 303.888 460.269C304.063 464.574 301.399 470.708 297.609 472.856C295.74 473.915 292.814 477.251 290.547 475.831C290.152 475.582 287.403 474.048 287.34 473.876C287.126 473.285 288.883 471.197 289.354 470.669C290.251 469.666 290.914 467.084 291.426 465.742C292.552 462.788 291.977 446.594 293.129 445.857C294.328 445.092 297.077 446.681 298.116 447.219L298.12 447.217ZM289.57 442.001C289.866 440.618 289.465 439.716 288.143 439.094C286.934 438.525 285.457 438.462 285.889 440.283C286.061 441.008 286.663 441.969 286.663 442.715V445.09C286.665 445.601 286.893 447.049 287.32 447.345C288.524 448.181 289.218 445.78 289.218 444.968L289.572 442.001H289.57ZM285.43 459.869L285.195 461.887C284.62 463.04 284.379 464.525 283.714 465.807C283.268 466.664 282.538 467.377 282.113 468.183C281.06 470.187 279.793 472.464 279.092 474.656C278.976 475.022 277.784 478.826 276.898 477.389C276.154 476.18 276.996 473.317 277.309 471.987C277.799 469.906 279.519 468.544 280.152 466.463C281.261 462.827 282.703 458.382 282.991 454.591C283.147 452.539 284.775 450.729 285.602 453.639C286.236 455.87 285.833 457.706 285.43 459.872V459.869ZM284.29 445.923C284.217 445.613 284.229 445.351 284.229 445.034C284.229 443.399 283.127 442.25 282.741 440.763C282.521 439.91 282.149 438.556 281.019 438.806C280.482 438.924 280.252 439.445 280.189 439.934C280.099 440.644 280.672 441.465 281.021 442.071C282.05 443.847 281.033 447.888 283.993 447.885L284.29 445.925V445.923ZM279.764 429.249C277.447 429.171 275.62 426.538 273.174 426.228C272.475 426.138 270.917 426.177 270.92 427.18C270.92 428.691 274.288 429.871 275.433 430.38C276.202 430.722 276.838 431.543 277.393 432.1C278.153 432.858 280.276 433.631 281.254 433.818C281.992 433.958 282.71 433.481 283.093 432.926C283.54 432.277 282.904 431.521 282.557 430.969L279.767 429.251L279.764 429.249ZM248.137 372.833C247.317 372.336 246.157 371.401 245.17 372.065C244.556 372.474 244.546 373.056 244.221 373.669C243.636 374.776 242.454 375.333 242.146 376.639C241.884 377.748 242.374 379.258 242.624 380.258C243.357 380.258 243.889 379.4 244.701 379.781C245.466 380.139 246.482 381.874 247.373 380.786C247.933 380.101 247.984 379.805 248.084 378.887C248.2 377.828 248.95 376.971 249.03 375.977L248.137 372.833ZM314.987 279.702C314.999 280.222 315.157 280.785 314.441 280.751C313.126 280.69 310.755 282.313 311.418 283.9C312.616 286.778 310.85 285.128 309.52 286.126C308.838 286.637 309.277 287.628 308.365 288.352C307.339 289.169 305.121 290.213 306.499 291.826C307.513 293.016 309.952 293.491 310.122 295.029L308.018 298.563C306.366 301.34 308.018 303.995 303.393 303.997C300.993 303.997 301.576 305.109 301.11 306.877C300.508 309.16 301.469 309.247 303.219 309.785C305.237 310.402 305.601 314.491 303.578 313.82C301.382 313.091 300.85 313.51 301.086 315.87C301.952 318.14 303.209 320.49 304.505 322.544C305.32 323.838 305.203 325.693 305.429 327.173C305.803 329.644 307.989 329.974 308.875 332.215C309.646 334.165 310.525 336.277 310.988 338.356C311.194 339.472 311.998 339.565 312.444 340.342C313.002 341.316 311.75 342.842 312.864 343.724C313.313 344.08 315.921 343.86 315.921 344.523C312.024 346.474 314.747 348.952 315.006 351.617C315.346 355.09 315.761 359.119 316.559 362.506C316.933 365.476 318.066 370.692 320.07 372.949C320.99 373.984 322.252 376.777 323.606 377.189C326.178 377.976 323.815 369.945 323.509 369.177C322.332 366.21 320.037 360.553 322.194 357.605C323.637 356.202 324.035 353.814 326.258 355.347C326.954 355.827 327.401 356.384 328.248 356.711C328.981 356.992 328.961 357.552 328.961 358.225C328.961 359.306 330.699 358.661 331.308 359.499C331.412 359.645 330.805 361.246 330.805 361.665C330.805 362.864 332.351 362.089 332.853 363.206C333.484 364.606 333.537 365.994 333.54 367.566C333.982 370.137 336.539 372.739 335.447 375.132C334.901 376.331 336.602 376.634 337.231 377.445C338.509 379.098 337.73 381.884 339.463 383.972C340.73 385.5 343.401 383.824 343.738 385.837C344.044 387.669 345.284 388.054 346.41 386.399C348.303 383.623 350.537 383.923 353.677 383.277C355.585 382.884 357.3 380.423 359.224 379.531C361.386 378.531 359.921 376.702 360.675 375.82C362.189 374.049 365.186 375.733 364.026 371.811C363.41 369.73 362.449 366.799 362.447 364.63C362.352 361.261 359.384 358.618 359.382 355.493C359.377 351.302 363.027 346.018 364.861 342.341C367.319 340.725 367.838 337.302 371.325 336.934C373.815 336.67 373.776 337.505 375.36 335.209C379.255 329.56 378.226 324.981 376.889 318.649C376.826 316.599 374.577 313.617 375.191 311.766C375.487 310.87 375.989 310.366 376.108 309.392C376.183 308.772 376.775 304.787 378.093 306.185C379.279 307.442 379.667 309.409 381.094 310.603C383.135 312.311 384.319 315.192 387.301 314.753C390.312 314.31 393.554 304.058 397.769 305.664C399.829 306.449 400.698 307.432 400.977 309.608C401.13 310.79 399.958 314.087 402.078 313.91C403.91 313.011 404.449 311.165 404.954 309.336C405.107 308.784 405.995 306.764 406.822 306.931C407.077 306.982 407.912 308.161 408.13 308.413C408.916 309.324 409.86 309.426 409.261 310.935C408.858 311.948 408.091 313.588 407.453 314.438C407.453 316.604 407.55 319.106 409.419 320.55C411.36 322.05 410.913 326.592 411.413 328.918C412.09 332.064 411.721 335.163 413.201 338.116C415.128 339.015 414.626 339.07 414.628 341.023C414.628 342.06 414.589 343.581 415.698 344.049C418.132 345.076 416.916 345.495 416.919 347.726C416.919 348.983 418.064 350.047 418.316 351.374C418.685 353.31 417.506 354.536 416.392 355.917C414.992 357.651 415.06 359.514 415.063 361.646C415.589 364.323 415.305 366.447 415.308 369.095C415.31 372.554 418.554 373.049 418.668 376.273C418.775 379.325 417.487 382.189 417.489 385.326C417.426 388.209 418.71 391.404 421.59 392.562C424.109 393.577 423.451 394.224 424.769 395.941C425.579 397 425.681 397.7 425.247 398.938C424.465 401.169 425.725 402.841 426.023 404.992C426.482 408.299 427.205 408.25 429.796 409.975C431.701 411.998 430.968 414.033 431.405 416.562C431.832 419.035 433.732 423.292 432.541 425.612C430.631 429.333 433.749 429.753 433.526 433.178C433.361 435.315 433.965 437.88 434.067 440.092C434.147 441.829 434.154 443.326 434.724 444.988C435.564 447.439 437.161 448.428 437.163 451.277C437.163 453.513 436.11 456.534 437.199 458.576C438.74 461.371 437.427 463.581 438.512 466.408C438.883 467.377 440.414 469.337 439.672 470.412C438.835 471.631 434.094 470.475 436.379 472.76C437.34 473.719 437.207 475.129 437.42 476.35C437.609 477.423 438.143 479.436 438.017 480.444C437.791 480.827 437.872 480.669 438.049 481.008C438.699 482.266 438.398 483.334 438.616 484.688C438.694 485.177 438.954 485.488 439.092 485.933C439.255 486.466 439.434 487.057 439.48 487.624L440.046 489.7C439.519 491.638 441.407 493.201 441.919 495.19C442.416 497.118 442.681 498.303 441.152 499.7C439.575 501.142 441.213 500.972 441.213 502.697C441.213 503.719 439.961 503.584 439.91 504.596C439.742 507.789 440.162 511.222 439.444 514.359C438.563 521.464 439.519 530.869 441.63 537.683C441.475 538.512 442.103 539.992 442.227 540.917C442.703 544.473 443.326 547.552 444.285 551.005L445.386 554.98C445.743 556.271 446.481 557.315 446.874 558.57C446.224 559.532 445.326 559.527 444.324 559.849C443.38 560.15 443.377 560.864 442.722 561.395C441.827 562.119 440.774 562.756 439.667 563.149C438.915 563.415 438.216 563.282 438.182 562.378C438.054 558.938 436.685 555.738 436.185 552.381C435.824 551.661 435.85 549.81 435.115 549.384C434.559 549.062 434.244 550.04 433.601 549.624C431.917 548.526 431.342 548.408 430.932 550.576C430.451 553.117 426.006 550.685 424.819 550.728C421.607 550.852 423.373 548.26 422.621 546.666C421.367 544.006 420.952 541.792 418.46 539.815C418.105 539.534 415.3 539.75 414.958 539.997C414.614 540.244 414.604 541.477 414.485 541.925C414.119 543.315 413.67 543.345 412.767 544.389C411.491 546.179 408.324 543.655 407.87 544.393C407.514 544.975 408.026 545.627 408.05 546.232C408.099 547.427 406.119 547.48 406.628 549.26C407.317 551.664 404.204 552.167 402.595 553.18C399.252 555.288 401.826 556.257 402.629 558.817C402.243 559.895 402.134 561.649 402.484 562.795C402.974 564.394 402.445 564.345 401.773 565.467C401.324 566.22 401.972 566.85 401.122 567.633C400.593 568.12 399.538 568.27 399.135 568.762C397.327 570.973 399.494 571.036 400.858 571.579C401.317 571.763 400.448 573.784 400.385 574.399C400.174 576.465 403.355 575.087 403.445 577.008C403.563 579.59 406.106 578.885 407.009 580.685C406.808 581.087 406.919 581.063 407.038 581.487C407.497 583.088 405.551 583.905 405.825 585.346C405.934 585.92 406.589 586.259 406.776 586.829C407.007 587.531 407.883 589.385 408.055 590.121H407.878C405.83 592.185 409.749 600.073 411.183 601.723C411.949 602.604 412.82 604.201 413.175 605.313C413.789 607.239 414.289 610.4 413.777 612.345C413.371 616.027 411.146 612.088 410.51 610.746C409.183 607.941 408.484 605.485 406.764 602.856C405.895 601.526 403.323 598.115 403.554 596.628C402.108 594.15 402.069 590.295 400.518 588.263C398.693 585.87 396.029 583.166 394.457 580.671C393.222 578.711 391.584 577.11 390.298 575.215C388.941 573.217 386.656 571.431 385.959 569.048C385.083 566.041 385.867 562.482 386.01 559.314C386.105 557.226 384.814 556.252 384.996 554.091C384.71 550.675 381.863 547.703 379.587 545.43C378.389 544.234 374.494 540.28 377.801 539.616C377.976 539.263 379.5 539.144 379.699 538.546C379.82 538.546 379.905 538.521 379.937 538.427C380.036 538.403 380.09 538.388 380.114 538.308C384.057 538.306 381.788 520.5 379.682 520.503L379.624 520.563C379.624 523.032 381.368 525.362 380.58 527.744C379.815 530.05 380.097 533.705 378.748 535.58C377.348 537.523 374.759 534.296 372.873 536.772C372.424 537.361 371.636 540.329 370.621 539.682C368.125 538.093 370.447 533.751 370.91 531.67C371.301 529.924 370.282 528.327 370.372 526.447C370.541 522.852 372.48 523.972 369.18 520.868C366.785 518.616 368.964 514.601 369.826 512.084L373.201 502.881C374.351 499.746 372.842 498.334 372.837 495.284C372.837 493.576 372.575 491.546 371.17 490.42C369.59 489.15 369.925 484.623 369.852 482.643C369.714 481.747 368.845 480.633 368.845 479.322C368.843 475.34 365.87 475.405 363.973 472.442C361.791 469.034 363.09 464.647 360.877 461.703C359.377 459.707 357.317 458.171 357.666 455.296C357.135 448.462 355.873 437.539 351.176 432.272C346.781 427.345 340.438 417.858 334.542 415.254C326.704 411.79 330.897 405.336 321.539 408.381C318.161 409.478 316.523 406.574 313.23 409.873C311.682 411.424 306.567 412.376 310.209 415.455C315.623 420.033 305.944 436.768 301.566 439.796C297.436 441.565 295.735 436.165 294.318 433.631C291.644 428.842 283.569 423.866 279.053 420.646C275.047 417.79 268.071 414.699 266.52 409.677C265.863 407.55 262.781 403.437 262.951 401.608C262.546 400.394 259.981 397.184 258.911 396.329C256.793 394.636 254.657 397.267 253.211 394.02C251.246 389.609 254.74 387.097 253.616 383.456C252.799 380.803 252.379 378.887 251.947 376.099C251.333 372.13 250.991 368.061 250.986 363.991C250.986 363.206 251.088 358.46 250.268 358.412C250.19 358.407 250.108 358.419 250.02 358.446L248.067 353.547C246.783 352.062 246.14 350.199 244.738 348.802C243.787 347.852 243.064 346.309 242.183 345.185C241.654 344.509 240.606 343.264 241.29 342.396C242.425 340.958 243.425 337.932 243.658 336.163C244.054 333.138 245.352 331.897 248.103 330.521C249.266 330.55 250.741 329.172 252.078 328.973C253.124 328.818 254.373 329.354 255.312 328.704C258.957 326.178 255.237 323.07 253.376 320.872C252.439 319.768 250.794 319.155 249.516 318.561C247.829 317.776 249.829 314.85 250.045 313.753C250.887 312.706 253.924 311.325 254.019 310.366C254.388 306.594 257.482 305.225 258.7 302.202C260.294 298.244 256.555 291.836 263.497 290.298C266.569 289.617 267.751 290.441 270.502 291.33C274.542 292.638 275.117 290.765 277.474 288.207C278.794 286.553 280.667 283.752 281.295 281.763C281.807 280.147 281.167 278.156 281.766 276.598C282.778 273.968 287.318 272.136 289.031 269.825C291.144 266.974 288.497 266.383 286.74 264.634C285.428 264.261 281.56 260.484 284.806 260.065C287.699 259.692 286.917 258.362 288.276 256.293C289.526 254.389 290.506 255.879 291.688 254.747C292.506 253.962 292.028 252.981 293.348 252.46C294.391 252.049 296.029 252.959 297.147 252.754C298.582 252.489 300.887 250.912 302.279 250.256C303.704 251.467 305.279 251.806 306.822 252.715C308.671 253.802 310.835 256.152 311.66 252.829C312.044 251.283 314.426 248.664 316.137 248.73C319.415 248.853 314.587 254.212 313.531 254.844C310.959 256.39 315.882 256.15 314.81 258.967C314.38 260.091 311.585 257.114 312.141 259.621C312.376 260.69 311.621 261.886 312.5 262.291C315.409 263.631 311.063 263.87 311.139 266.179C311.192 267.848 313.06 271.373 314.291 272.439C314.553 273.401 314.82 274.04 314.084 274.842C313.303 275.697 313.441 276.419 313.82 277.364C313.973 277.744 314.033 278.18 314.089 278.58C314.172 279.181 314.244 279.161 314.994 279.694L314.987 279.702Z" fill="#DE9983" stroke="white" stroke-miterlimit="10"/>
<path fill-rule="evenodd" clip-rule="evenodd" d="M251.294 454.201C250.722 454.101 250.777 454.007 250.464 454.319C250.336 454.45 250.222 454.644 250.108 454.794C249.904 455.068 249.715 455.492 249.634 455.804C249.564 456.071 249.392 456.301 249.278 456.577C249.215 456.73 249.139 457.546 249.22 457.706C249.44 458.149 250.595 457.939 250.882 457.706C251.052 457.568 251.292 457.168 251.416 456.933C251.658 456.468 251.651 455.804 251.532 455.33L251.294 454.203V454.201ZM239.642 500.919C238.912 500.783 237.99 500.677 237.388 501.217C237.182 501.404 237.131 501.651 236.973 501.871C236.832 502.065 236.633 502.237 236.497 502.465C236.337 502.736 236.223 503.218 236.379 503.533C236.728 504.231 237.733 504.308 238.456 504.185C239.04 504.083 239.421 503.778 239.88 503.412C240.426 502.973 240.591 502.69 240.591 501.987L239.64 500.919H239.642ZM260.944 494.788C260.529 495.233 260.236 495.875 259.996 496.45C259.894 496.692 259.758 496.81 259.639 497.043C259.45 497.426 259.333 497.775 259.224 498.172C259.185 498.312 259.161 498.923 259.224 499.003C259.675 499.57 260.481 498.693 260.767 498.407C260.959 498.215 261.068 498 261.243 497.813C261.752 497.261 262.128 496.68 262.31 495.914C262.42 495.456 262.606 495.292 262.606 494.785C262.606 494.555 262.313 494.119 262.131 494.073C262.099 494.165 261.825 494.32 261.716 494.429L260.944 494.785V494.788ZM254.053 488.918C252.634 488.727 251.231 488.538 250.256 489.693C249.739 490.306 249.843 492.418 249.843 493.196C249.843 494.17 249.251 494.95 249.251 495.926C249.94 496.04 250.338 496.406 251.151 496.043C252.544 495.422 252.643 494.112 253.463 492.954C253.922 492.307 255.492 490.517 256.31 490.4C256.351 490.236 256.448 490.185 256.606 490.163C256.739 489.628 257.103 489.453 256.487 489.037C256.091 488.77 255.553 488.346 255.063 488.741L254.053 488.92V488.918ZM249.363 486.549L248.533 487.736C248.031 488.492 247.06 488.874 246.754 489.814C246.49 490.631 246.461 491.474 246.223 492.249C245.738 493.819 245.427 496.738 244.151 497.77C242.532 499.08 242.224 498.194 241.302 497.121C240.229 495.871 238.021 495.655 238.628 493.681C239.159 491.951 241.183 489.475 242.481 488.276C243.323 487.498 244.435 486.849 245.031 485.839C245.519 485.015 244.973 482.927 246.453 483.048C247.596 483.143 248.802 485.65 249.365 486.546L249.363 486.549ZM248.094 461.03C247.269 461.03 246.344 460.95 245.839 461.684C245.638 461.977 245.839 462.76 245.839 463.108C245.839 464.031 243.801 464.741 245.427 465.306C245.781 465.429 246.407 465.342 246.732 465.543C248.295 466.497 249.27 465.497 250.115 464.174C250.433 463.675 250.411 463.242 250.411 462.631C250.411 461.645 250.231 461.277 249.283 461.088L248.096 461.03H248.094ZM243.175 469.463L245.25 467.68C249.945 463.925 247.094 476.929 246.565 478.482C245.738 480.911 243.411 481.762 242.117 483.591C241.45 484.536 239.603 490.982 238.618 488.046C238.123 486.57 235.692 480.667 236.238 479.739C237.022 478.407 238.012 477.251 238.846 475.877C240.079 473.852 241.559 471.137 243.173 469.463H243.175ZM231.732 481.997L234.105 480.868C236.575 480.868 235.372 483.54 235.711 484.962C236.114 486.646 236.961 488.382 236.963 490.182C236.966 493.71 229.997 497.467 227.296 498.974C225.748 499.839 225.348 501.527 223.322 501.825C221.206 502.138 220.531 501.377 220.529 499.277C220.526 495.335 224.025 493.099 224.02 489.066C224.02 486.498 226.707 486.079 228.529 485.204C230.128 484.436 230.344 482.842 231.732 481.997ZM246.791 395.033C245.64 395.212 243.743 394.454 242.518 394.265C241.35 394.086 240.538 394.813 239.55 395.336C238.795 395.738 236.888 396.15 237.475 397.475C237.723 398.032 238.215 398.492 238.545 399.018C240.028 401.37 240.043 403.531 243.355 401.743C244.927 400.896 246.74 400.501 248.458 401.026C248.902 401.162 255.873 403.095 253.679 400.903C252.806 400.031 251.583 400.07 250.532 399.6C248.865 398.853 249.722 397.371 248.749 396.16L246.788 395.033H246.791ZM270.216 439.406C271.184 443.028 271.854 443.043 270.519 446.647C269.551 449.256 270.049 450.952 270.051 453.593C270.056 459.409 268.775 464.431 267.869 470.095C267.161 474.531 266.202 475.974 262.357 478.586C259.505 480.524 255.405 487.9 251.323 485.599C246.628 482.951 249.171 477.736 249.353 473.494C249.533 469.315 248.819 466.798 251.838 463.401C253.585 461.437 254.686 456.49 255.033 453.961C255.366 451.548 254.919 447.704 255.739 445.652C255.3 441.025 256.305 435.383 254.956 430.993C254.468 429.404 249.705 425.833 248.244 425.835C248.22 425.765 246.451 425.821 246.106 425.659C239.096 422.328 247.232 418.614 245.798 413.968C245.216 412.083 243.777 411.528 243.777 409.222C243.777 406.966 248.577 400.506 250.777 404.469C252.512 407.594 252.767 411.623 254.703 414.554C256.319 416.998 257.608 418.674 259.576 420.84C261.781 423.27 260.99 427.342 262.374 430.453C263.589 433.188 266.253 435.744 268.731 437.391L270.216 439.409V439.406ZM262.774 413.655C262.109 413.299 261.99 412.26 261.466 411.698C260.721 410.898 259.338 409.154 258.2 409.089C256.938 409.018 256.861 410.554 257.193 411.463C257.87 413.316 260.396 413.914 260.937 415.673C261.17 416.429 261.367 417.427 261.65 418.105C262.184 419.377 263.203 418.207 263.609 417.391L262.774 413.653V413.655ZM183.107 398.056C184.246 396.155 183.37 394.461 186.31 394.849C187.98 395.069 189.89 394.285 191.117 393.153C192.952 391.465 190.911 388.417 194.199 387.007C195.303 386.535 195.288 384.922 195.412 383.89C195.541 382.816 196.739 381.254 197.487 380.505C198.724 379.216 200.789 379.606 201.728 378.809C202.752 377.942 201.6 376.508 203.031 376.048C204.706 375.51 204.715 375.595 205.761 374.207C206.509 373.213 207.518 374.369 208.581 373.492C211.32 371.229 210.454 376.913 210.454 377.824C210.456 381.617 210.612 385.716 215.477 385.714C218.051 385.714 221.64 383.136 218.352 381.171C217.03 380.382 215.009 380.357 214.463 378.742C213.8 376.782 215.445 375.917 217.071 376.07C219.789 376.322 223.001 373.657 226.151 374.369C228.832 374.977 230.05 378.26 232.654 377.39L237.432 374.987C237.699 377.79 241.013 380.699 242.333 382.87C243.432 385.222 247.024 385.76 247.028 388.8C247.028 391.336 243.221 391.123 241.452 392.01C239.467 393.003 239.868 393.851 237.24 393.853C233.486 393.856 234.549 396.605 234.039 398.604C233.661 400.089 232.829 400.678 232.916 402.402C232.984 403.795 235.287 403.987 235.352 404.835C235.51 406.886 233.268 406.535 235.592 408.691C239.778 412.575 238.041 415.239 238.511 420.38C238.519 428.612 246.652 427.856 248.14 434.913C248.38 436.058 250.639 438.777 250.222 439.302C249.457 440.269 247.817 440.077 247.909 441.856C247.98 443.21 249.639 443.123 249.928 443.99C251.881 443.99 249.239 452.028 248.749 453.011C248.756 459.884 245.315 458.959 241.814 463.048C239.567 465.671 238.657 468.712 236.954 471.599C236.01 473.198 232.79 477.878 230.786 477.064C230.565 476.975 229.444 476.372 229.361 476.711C228.209 476.941 230.203 479.773 229.128 480.984L225.275 485.32C221.975 489.032 223.232 481.532 224.678 481.047C224.678 479.703 229.597 476.057 227.464 475.526C227.461 472.236 232.62 465.977 229.827 463.714C228.027 462.253 229.587 460.616 229.584 458.908L229.526 458.85C227.155 458.85 226.498 465.499 230.126 465.497C230.434 466.725 228.23 469.167 228.23 471.435C225.882 472.217 227.704 474.063 226.573 475.592C225.404 477.169 223.717 478.373 222.72 479.986C220.104 484.221 219.963 488.349 218.161 492.869C214.705 501.537 210.495 512.157 199.474 504.221C196.919 502.38 200.403 500.771 199.884 498.7C197.919 498.7 194.517 503.218 193.119 498.942C192.19 496.106 193.672 491.156 196.019 489.264C198.591 487.191 201.881 473.22 206.987 474.359C210.888 475.228 213.696 469.717 213.448 466.044C213.24 462.941 210.774 462.733 210.772 459.756C210.772 457.963 209.282 451.819 209.287 457.205C209.289 460.092 210.068 462.088 211.311 464.504C212.007 465.858 209.5 473.167 207.875 473.053C205.048 472.857 204.769 472.13 202.534 474.482C200.243 476.892 195.463 488.584 192.695 488.736C190.181 488.874 189.28 484.492 189.722 482.627C190.263 480.342 193.58 481.696 193.575 477.045C193.573 473.661 193.362 472.752 195.23 470.039C196.982 467.498 191.906 465.235 194.752 465.233C194.864 464.782 199.202 460.39 199.969 458.76C201.063 457.977 201.544 454.545 201.093 453.3C200.447 451.521 200.568 450.322 201.622 448.67C202.172 447.805 203.218 446.337 203.4 445.344C203.597 444.264 202.303 445.644 202.155 445.819C201.556 446.519 201.391 447.544 200.733 448.135C199.6 449.15 199.268 449.867 198.54 451.163C197.766 453.302 201.338 453.859 199.612 456.563C198.453 458.382 196.232 457.999 197.184 460.838C197.911 463.014 188.29 466.841 192.382 468.261C196.021 469.523 194.51 469.48 192.149 472.12C189.982 474.543 193.733 477.98 189.426 480.253C186.012 482.055 191.976 493.966 186.587 492.305C183.2 491.26 184.241 487.898 183.496 485.303C183.09 483.891 182.11 482.505 181.593 481.091C180.222 477.348 182.989 473.983 181.108 470.231C179.349 466.715 178.631 461.282 177.655 457.176C178.458 453.946 179.776 453.576 181.329 451.059C182.176 449.688 181.676 446.848 182.571 445.836C185.384 442.648 188.031 442.042 189.033 437.461C189.523 435.228 190.972 434.934 192.828 434.312C193.182 431.453 193.828 427.178 193.117 424.341H192.998C192.127 426.969 191.991 427.815 191.993 430.751C191.996 434.75 190.071 433.353 188.198 434.552C188.079 434.627 188.053 437.689 187.846 438.469C187.322 440.451 185.061 441.502 183.518 442.568C181.302 444.099 181.453 448.287 178.83 443.047C178.575 442.539 178.388 442.071 178.245 441.64L179.274 439.799C180.222 439.249 181.654 437.786 182.474 436.962C183.433 436 184.071 435.986 182.799 434.884C182.219 434.382 177.313 430.034 180.242 430.138C180.717 430.155 184.607 432.107 184.427 430.46C184.265 428.977 182.464 428.835 183.741 426.989C186.235 423.381 182.321 419.442 183.137 415.356C183.755 412.868 181.159 412.824 179.662 412.185C178.371 411.635 177.563 410.256 178.592 409.011C180.137 407.136 182.552 407.516 183.692 404.941C184.709 402.642 182.363 401.528 182.234 399.6L183.122 398.056H183.107Z" fill="#9A8EE6" stroke="white" stroke-miterlimit="10"/>
<path fill-rule="evenodd" clip-rule="evenodd" d="M150.081 504.325C149.18 504.519 147.55 502.937 146.873 502.31C145.128 500.694 145.774 503.424 146.043 504.269C146.332 505.171 147.193 506.462 146.759 507.356C146.196 508.514 145.902 508.892 145.99 510.323C146.048 511.288 148.428 514.451 149.258 514.89C150.085 515.328 152.541 515.633 151.335 513.998C150.59 512.986 149.969 511.738 149.729 510.498C149.467 509.144 151.136 509.752 151.626 508.657C152.422 506.881 152.357 506.607 151.148 504.919L150.081 504.325ZM129.123 498.23C128.613 498.465 126.663 498.632 126.512 499.24C125.709 499.441 124.178 502.421 125.151 502.743C125.151 502.954 125.454 503.228 125.508 503.455C125.624 503.938 125.224 506.169 125.629 506.304V506.423L125.69 506.481C126.75 506.481 127.053 505.842 127.053 504.878C127.053 504.311 127.16 502.833 127.764 502.68V502.562C127.873 502.535 127.856 502.552 127.883 502.443C128.165 502.373 128.3 501.951 128.475 501.908C128.475 501.132 129.186 500.495 129.186 499.592L129.125 498.228L129.123 498.23ZM102.597 502.586C102.725 500.5 101.757 499.875 100.753 498.434C100.532 498.116 100.127 497.329 99.8014 497.128C98.9982 496.634 101.204 493.879 98.6124 494.281C97.1347 494.509 99.4228 498.475 99.6267 499.03C100.042 500.163 100.592 501.52 100.282 502.828C99.9712 504.139 98.9181 505.042 98.9206 506.508C98.9206 507.755 102.349 511.392 103.317 512.438C104.043 513.223 106.193 514.156 107.236 514.156C110.524 514.153 107.057 509.965 106.103 509.112C104.074 507.298 101.592 507.799 101.587 504.308L102.594 502.586H102.597ZM130.778 285.155C129.521 286.715 129.21 289.036 127.99 290.593C127.094 291.734 125.847 293.898 125.738 295.344C125.442 297.229 125.879 298.6 125.148 300.448C123.974 303.423 122.166 303.6 122.841 307.306C123.067 308.547 124.959 311.265 125.784 312.29C128.191 315.281 131.576 310.574 134.037 313.649C134.971 314.814 134.668 316.73 136 317.653C136.9 318.278 139.137 318.639 139.266 320.054C139.057 322.898 141.076 321.747 141.435 323.494C141.576 324.177 141.408 324.724 142 325.214C143.262 326.253 142.423 326.677 141.469 327.588C140.724 328.3 140.748 330.018 141.056 330.941C142.403 334.964 143.587 328.881 146.101 330.58C149.498 332.874 151.114 334.318 152.014 338.38C152.408 340.158 152.912 341.236 150.978 341.883C149.503 342.375 149.882 344.138 149.884 345.325C150.224 346.951 151.42 351.014 152.679 352.089C153.228 352.559 157.336 353.564 156.598 354.163C155.317 355.2 153.941 355.316 153.752 357.252C153.308 361.789 159.85 356.421 158.622 361.254C158.134 363.177 157.901 366.472 160.971 365.524C161.701 365.299 164.948 363.158 165.096 364.72C165.154 365.355 163.269 366.341 162.96 367.273C162.815 367.717 162.138 371.915 160.648 369.769C159.34 367.884 158.153 368.637 158.156 370.75C158.983 373.402 159.532 372.906 161.75 373.773C163.54 374.473 163.383 377.86 165.375 379.318C166.719 380.302 166.168 384.132 168.318 384.391C172.453 384.89 170.393 388.65 172.686 390.767C173.792 391.789 175.175 390.816 175.894 392.722C176.665 394.772 177.184 394.873 179.101 395.954L183.11 398.056L182.222 399.6C182.35 401.528 184.697 402.642 183.68 404.941C182.54 407.516 180.125 407.136 178.58 409.011C177.553 410.256 178.361 411.635 179.65 412.185C181.147 412.824 183.743 412.868 183.124 415.356C182.309 419.44 186.223 423.379 183.729 426.989C182.452 428.835 184.253 428.978 184.415 430.46C184.595 432.107 180.705 430.155 180.23 430.138C177.298 430.034 182.207 434.382 182.787 434.884C184.061 435.986 183.421 436 182.462 436.962C181.642 437.786 180.208 439.249 179.262 439.799L178.233 441.64C177.255 438.687 178.276 437.328 173.528 435.753C172.346 435.361 169.548 431.96 169.429 431.96C168.947 433.89 170.638 435.487 172.399 435.756C173.979 435.998 175.658 438.513 176.973 438.837C176.973 438.966 176.961 438.983 177.092 439.014C177.143 439.363 177.449 439.605 177.449 440.022C177.667 440.131 177.456 440.32 177.687 440.378C177.912 441.955 178.32 442.878 177.869 444.591C177.265 446.882 178.723 446.752 180.009 448.091C178.068 450.62 175.187 453.195 174.794 456.643C174.489 459.312 173.324 463.438 176.522 464.654C178.529 465.417 178.759 467.912 179.08 469.756C179.536 472.391 179.417 475.105 177.364 476.762C176.66 477.331 175.51 479.933 173.984 478.961C172.433 477.975 174.426 476.582 174.159 475.519L174.098 475.458C173.283 475.458 172.902 476.323 172.467 476.943C169.738 478.993 174.229 480.095 175.35 481.214C177.454 483.315 176.486 487.399 177.347 490.204C178.14 492.901 180.613 497.92 175.869 498.128C174.797 498.174 174.952 500.086 174.952 500.8C174.952 502.312 172.768 501.416 171.749 502.019C171.21 502.339 169.83 503.436 169.286 502.734C168.604 501.852 167.544 501.377 166.821 500.51C166.095 499.64 165.365 498.402 164.741 497.455C164.232 496.539 163.732 495.703 163.996 494.667C164.171 493.981 164.814 493.528 164.38 492.738C163.356 490.866 163.54 490.284 164.97 488.85C166.197 487.619 165.899 486.922 166.362 485.347C166.471 484.977 166.367 483.38 166.122 483.627C165.528 484.221 165.564 485.032 165.71 485.735C165.872 486.522 165.202 487.842 164.644 488.378C163.523 489.448 162.067 488.983 163.133 491.11C163.351 492.208 164.373 493.705 163.225 494.582C162.058 495.473 163.909 497.036 164.385 497.787C165.644 499.776 165.727 504.434 162.104 502.893C160.82 502.348 160.641 502.387 159.224 502.421C157.799 501.544 158.695 500.379 158.36 499.216C158.187 498.615 157.409 497.84 157.409 497.23C157.457 497.213 157.513 497.142 157.527 497.082C159.294 497.082 160.257 492.624 160.4 491.382C160.67 489.066 160.032 486.406 161.492 484.407C163.084 482.232 159.799 481.633 160.005 480.817C160.1 480.451 161.48 479.492 161.813 479.184C162.545 478.504 162.524 477.949 162.524 476.987C162.47 476.972 162.478 476.982 162.465 476.926C161.754 476.926 161.834 478.455 161.517 478.915C160.959 479.724 160.432 479.388 159.619 479.659C157.379 480.408 161.136 481.99 161.136 482.774C161.136 484.056 160.269 484.679 159.772 485.713C158.692 487.963 159.624 488.046 160.044 490.134C160.272 491.273 159.976 494.172 159.158 495.061C156.484 497.966 156.44 494.756 155.208 492.423C154.781 491.617 151.507 490.749 151.35 491.389L151.379 491.418C154.468 491.416 156.426 493.758 155.448 496.697C152.672 499.478 156.647 502.397 158.423 504.291C160.405 506.409 163.477 511.062 158.132 510.88C156.824 510.837 152.704 509.999 152.907 508.482C153.366 505.047 151.745 504.025 148.955 502.344C146.778 501.031 146.965 500.519 146.963 498.102C146.963 495.989 146.247 493.947 146.453 491.781C146.453 489.298 147.259 487.3 147.991 485.013C148.654 482.942 148.86 480.359 150.241 478.63C153.757 474.225 150.857 470.873 148.064 467.057C146.875 463.494 149.408 464.269 150.792 462.454C152.388 460.361 150.617 457.246 152.388 455.775C153.572 454.792 154.184 453.297 154.788 451.945C155.676 449.957 153.859 447.071 153.626 445.15C153.021 442.89 151.624 441.148 151.126 438.951C150.663 436.904 150.559 434.959 150.556 432.839C150.551 428.713 146.921 425.678 145.473 422.071C145.101 421.148 145.288 419.932 144.995 419.045C144.475 419.176 144.422 423.406 144.791 424.002C145.487 425.128 146.572 425.937 147.346 427.056C148.901 429.307 150.066 433.803 149.848 436.579C149.578 442.403 157.753 449.319 151.823 454.976C149.753 456.95 150.627 458.61 149.513 460.766C148.637 462.525 145.834 463.188 146.222 465.606C146.606 467.99 147.94 469.044 149.166 470.856C151.684 474.584 148.152 477.634 147.157 481.362C146.339 484.431 146.409 487.581 143.568 484.274C143.053 483.673 144.245 482.382 144.514 481.81C146.776 477.004 144.471 474.221 142.427 470.09C141.34 467.895 140.404 464.807 140.195 462.377C141.168 459.443 141.911 456.999 140.307 454.186C138.829 451.599 135.252 450.012 136.621 446.742C137.291 445.138 137.3 442.558 137.298 440.807C137.298 440.203 137.38 439.416 136.97 438.936C136.604 438.51 136.267 438.258 136.048 437.72C135.519 436.415 135.439 435.589 135.808 434.188C135.971 433.573 136.502 432.953 135.658 432.616C134.595 432.192 134.629 431.296 134.677 430.274C134.762 428.445 134.951 428.512 133.369 427.367C132.952 427.064 132.462 426.017 132.508 427.337C132.544 428.355 133.318 428.459 133.668 429.295C134.037 430.177 133.981 430.804 133.728 431.698C133.634 433.643 134.425 434.37 134.563 436.09C134.711 437.921 134.507 439.796 134.983 441.579C135.308 442.8 136.194 443.828 136.233 445.141C136.288 446.991 134.396 448.147 134.396 449.564C134.396 451.197 137.681 451.895 138.198 453.598C138.516 454.857 139.649 455.884 140.1 457.069C140.394 457.839 139.329 459.765 138.679 460.245C138.31 460.519 136.432 461.393 137.315 461.759C139.916 462.842 137.997 471.968 139.906 471.965C140.76 471.965 141.311 471.447 141.865 472.438C142.238 473.109 142.488 474.836 142.372 475.582C142.6 477.096 143.502 478.339 143.502 479.737C143.505 483.395 141.411 480.337 140.418 480.807C139.351 481.314 142.602 489.688 142.92 490.924C143.636 493.698 144.01 495.464 140.639 495.466C139.295 495.466 139.438 495.231 138.768 494.073C138.174 493.046 138.426 491.934 137.164 491.374C135.624 490.691 135.83 488.78 136.092 487.399C136.48 485.357 135.898 484.247 135.968 482.384C136.012 481.209 137.929 477.568 135.937 479.565C134.175 481.331 136.262 483.945 135.941 485.798C135.75 486.91 134.626 488.3 134.934 489.419C135.286 490.686 135.924 491.832 137.045 492.564C138.999 493.838 137.577 493.581 138.205 495.352C138.662 496.636 140.612 496.152 140.224 497.486C140.083 497.976 138.603 501.321 138.448 501.375C138.47 501.309 138.465 501.295 138.477 501.227C137.963 503.165 140.256 504.427 139.669 506.716C139.176 508.637 137.261 510.345 135.874 511.736C135.34 512.271 135.33 512.971 134.896 513.429C133.925 514.451 132.523 515.331 131.304 514.115C129.715 512.528 129.118 511.285 128.747 508.984C128.533 507.656 127.788 506.457 127.883 505.127C129.914 503.09 129.637 500.672 130.727 498.211C131.926 495.498 132.166 493.63 129.8 491.534C128.587 490.459 129.028 486.854 128.606 485.214C128.317 484.092 128.922 482.971 128.842 481.919C130.547 479.572 133.255 478.562 131.477 475.388C131.11 474.734 131.681 473.288 132.365 472.983C133.255 472.585 134.612 470.909 134.381 469.984C132.879 469.984 133.076 472.329 131.712 472.331C131.537 472.857 130.722 474.618 130.052 474.618C128.808 474.618 128.097 472.503 127.23 472.721C127.23 474.267 128.349 474.741 129.191 475.776C129.509 476.251 131.491 477.137 131.389 477.673C131.203 478.649 129.674 480.037 128.871 480.582C126.192 482.401 127.718 485.446 127.721 487.973C127.721 489.037 126.801 487.726 126.621 487.498C126.296 486.915 126.114 486.287 125.789 485.718C125.289 484.846 124.561 484.172 124.037 483.286C123.384 482.181 123.161 481.219 122.698 480.052C122.972 479.225 124.171 477.445 123.673 476.609C122.918 475.34 120.669 476.953 120.616 475.691C120.504 473.004 122.278 470.449 123.962 468.535C124.326 468.121 125.68 467.144 125.801 466.783C125.903 466.473 124.889 465.926 124.85 465.272C124.746 463.561 124.11 465.822 124.02 466.192C123.702 467.498 122.989 467.483 122.242 468.419C120.783 469.586 119.834 472.433 119.308 474.208C118.512 476.902 122.101 476.96 122.101 477.767C122.101 478.906 120.494 479.099 121.065 480.943C121.426 482.113 122.489 483.257 123.115 484.354L126.146 489.664C126.379 490.764 127.439 491.445 128.106 492.273C128.674 492.976 128.516 493.676 128.643 494.529C129.007 496.99 127.264 496.854 126.034 498.182C125.059 499.233 124.411 500.011 123.989 501.447C123.566 502.886 122.693 506.147 122.239 502.755C122.11 501.789 122.491 500.827 121.851 500.025C121.147 499.143 122.023 497.794 122.44 496.997C122.773 496.365 122.331 495.655 122.647 495.037C121.873 493.295 120.012 495.2 118.905 493.291C118.09 491.886 115.826 492.806 116.054 490.8C116.178 489.703 117.09 489.356 117.685 488.661C119.14 486.956 117.658 486.975 116.406 486.11C115.115 485.219 116.961 482.569 117.558 481.6C119.264 478.84 117.289 477.382 115.535 475.192C114.853 474.339 115.326 476.212 115.358 476.35C115.649 477.59 117.199 478.702 117.202 479.998C117.202 481.488 114.516 484.405 115.04 485.342C115.527 486.214 116.382 486.772 116.823 487.627C117.143 490.141 112.965 488.94 113.977 491.575C114.768 493.635 117.384 492.431 118.252 494.063C119.162 495.776 119.337 495.505 121.043 495.931C122.421 496.275 120.623 498.858 120.424 499.909C120.303 500.541 120.424 501.45 120.424 502.104C120.424 503.518 120.972 504.272 121.227 505.546C121.358 506.661 122.288 507.666 122.535 508.78C122.737 509.686 122.753 510.692 122.656 511.629C122.428 513.802 121.989 515.602 122.513 517.712C122.8 518.863 122.627 519.512 121.683 520.234C120.186 521.38 118.199 521.421 116.343 521.634C115.324 521.75 114.632 521.859 114.829 520.626C114.928 519.999 115.282 518.838 115.508 518.221C116.134 516.523 116.67 517.169 116.01 515.52C115.707 514.764 115.712 514.299 115.712 513.473C115.712 512.53 115.105 511.547 115.176 510.713C113.907 508.972 112.4 507.501 112.737 505.137L113.533 499.558C113.722 498.23 114.722 497.108 115.103 495.788C115.857 493.179 112.196 494.049 110.738 493.923C108.954 493.768 109.138 493.111 107.916 492.145C107.1 488.882 111.114 489.017 110.966 485.97C110.937 485.374 110.866 484.32 111.795 484.485C112.409 484.594 113.909 486.222 113.725 485.226C113.535 484.201 111.691 483.37 110.784 483.181C107.799 482.559 110.905 481.27 111.106 480.005C111.415 478.075 106.651 476.478 106.649 473.806C106.649 473.089 106.739 472.19 105.758 472.798C104.011 473.879 106.748 475.72 107.275 476.418C107.835 477.159 110.932 479.654 109.505 480.512C108.394 481.18 108.539 482.002 107.993 482.975C108.037 483.327 108.864 483.882 109.121 484.163C109.481 484.55 109.602 485.204 109.687 485.706C109.9 486.958 108.58 488.339 107.612 488.942C105.152 490.354 106.268 493.441 108.093 494.698C109.202 495.461 111.458 494.841 112.783 495.168C113.106 496.462 112.487 497.084 112.489 498.254C112.315 498.312 112.077 500.086 112.016 500.333L111.366 502.944C111.102 504.008 111.106 507.285 110.005 507.457C108.886 507.629 107.374 506.181 106.382 505.621C105.016 504.851 103.88 500.41 104.121 499.034C103.363 496.769 101.345 494.747 101.92 492.329C102.429 490.175 103.477 488.622 103.635 486.154C103.9 482.021 96.6761 478.508 100.182 474.703C100.913 473.91 101.138 473.298 101.061 472.798C101.216 472.564 102.065 471.611 102.228 471.376C102.381 471.156 102.551 470.94 102.701 470.722C102.881 470.468 103.06 470.131 102.997 469.802C102.864 469.104 101.541 469.068 101.126 468.467C100.903 468.145 100.828 468.041 100.828 467.636C100.828 466.786 101.063 466.028 101.063 465.201C101.063 464.395 99.8232 464.053 99.3112 463.511C98.1125 462.244 98.1781 459.184 96.3412 459.506C94.7057 459.794 96.1374 457.888 95.2105 457.074C94.963 456.856 94.0482 455.967 94.2593 455.591C94.5407 455.092 95.885 455.17 95.9214 454.7C95.9821 453.908 95.1498 453.089 94.5553 452.684C92.2259 451.105 93.8298 447.442 93.0946 445.09C91.2723 443.934 92.881 442.747 93.774 441.856C94.8756 440.753 93.1843 439.993 93.6818 438.355C94.1161 436.926 93.5192 436.991 92.4637 436.042C91.9056 435.54 91.9614 434.886 91.7212 434.232C91.2747 433.03 91.6848 429.603 90.6195 429.009C89.1394 428.188 89.1855 428.413 89.1345 426.637C89.0957 425.305 88.3362 424.68 89.5762 423.728C90.3381 423.144 90.2313 422.81 90.4934 421.976C90.0469 421.351 88.7924 421.993 88.2974 421.533C87.8946 421.158 88.0038 420.16 87.88 419.634C87.4093 417.635 88.6153 417.48 89.3602 415.656C89.6295 414.995 90.3017 413.631 89.9814 412.955C89.3408 411.601 87.6228 410.889 86.9798 409.396C86.1548 407.475 86.6498 406.211 87.9844 404.648C88.6517 403.868 89.8867 403.631 90.3575 403.013C91.413 401.627 90.7457 400.031 91.2432 398.531C91.3014 397.817 89.8601 395.074 89.0448 395.21C86.3271 395.665 85.9534 395.186 85.1551 392.482C84.7741 391.198 86.0383 390.67 84.796 389.96C83.6628 389.311 84.9319 386.392 82.5393 388.003C79.8387 389.822 81.6828 384.587 81.5857 384.086C81.4135 383.187 79.1495 381.625 81.2266 381.622C83.8569 381.622 82.2457 380.755 82.9446 378.979C83.3401 377.974 83.0125 377.584 82.8524 376.576C82.4205 374.749 81.3771 372.872 83.2624 371.561C84.1918 370.915 86.9556 368.526 87.3535 367.552C87.8145 366.426 88.3484 365.471 89.0423 364.434C90.0348 362.952 91.396 362.409 92.9271 361.641C92.9757 361.241 93.3906 360.146 93.0727 359.831C90.9204 359.831 88.261 361.983 86.4848 360.105C84.6091 358.119 82.5806 358.039 79.8654 358.3C78.8875 358.395 76.017 355.263 75.9175 357.622C75.7161 362.339 73.4182 357.867 71.8507 357.002C70.2249 356.825 67.6577 357.348 67.7523 354.868C67.8203 353.114 66.2528 352.891 65.85 351.396C65.5442 350.263 67.2234 351.6 67.8373 351.188C68.1551 350.975 68.3832 350.2 68.7569 350.178C70.6811 350.069 69.696 348.516 69.4654 347.15C69.0893 344.906 72.353 345.272 71.8361 342.845C71.4406 340.987 70.089 341.888 71.2101 339.729C71.528 339.117 71.2635 338.358 71.3557 337.682C72.103 335.623 75.8495 337.741 74.6169 334.414C73.7215 331.997 76.5605 332.6 73.9302 330.26C72.9062 329.349 71.4746 332.033 70.6374 332.251C68.7787 332.733 68.439 329.836 66.4809 329.138C65.5394 328.804 64.8551 327.152 63.8675 326.471C61.9094 325.119 62.3146 324.884 61.3707 322.912C61.0601 322.263 59.8784 319.804 59.3785 319.472C58.3788 318.809 54.9842 321.192 54.3921 318.38C53.8267 315.698 52.4849 316.04 53.4094 313.099C53.4919 311.735 52.3053 309.443 52.7809 308.411C53.4822 306.887 52.679 305.872 53.4603 304.462C53.9092 303.653 54.1567 302.616 53.3099 301.941C51.4755 300.475 54.2125 301.354 54.9696 300.128C55.4112 299.416 55.2656 298.605 55.9159 297.873C56.8695 296.802 55.2026 293.75 54.3387 292.89C53.191 291.742 59.8323 291.245 60.9266 291.579C62.8023 292.151 64.1878 290.23 65.139 288.844C65.4593 288.403 66.0198 287.066 66.6216 287.093C67.5024 287.132 68.2983 288.277 69.0262 287.12C69.5771 286.243 69.5649 283.333 68.934 282.461C67.978 281.138 68.8807 280.164 70.2977 279.908C72.7606 279.46 71.2246 277.485 70.5622 277.742C66.8181 279.193 69.281 274.835 68.7763 272.817C68.6647 272.371 68.1794 271.904 68.1527 271.453C68.1163 270.845 68.4512 270.259 68.5676 269.673C69.0748 267.083 65.9155 267.582 65.8063 266.855C65.6777 266.01 66.6216 265.685 66.9613 265.104C67.8979 263.958 70.7733 263.43 70.5185 261.778C70.4409 261.278 70.2856 260.852 70.0963 260.457L74.4033 261.773C75.7961 262.521 77.2787 262.945 78.6788 263.667C80.984 264.859 82.4326 265.515 85.1211 265.324C87.7733 265.135 92.4079 263.069 94.5893 265.583C95.4919 266.625 96.2975 267.57 96.6397 268.965C96.9236 270.118 97.518 272.71 98.1562 273.624C100.09 278.813 103.067 282.788 109.323 282.783C112.045 282.781 114.923 281.068 117.515 282.599C121.208 284.779 124.35 283.81 128.347 283.806L130.603 285.019L130.756 285.162L130.778 285.155Z" fill="#77B9DE" stroke="white" stroke-miterlimit="10"/>
<path fill-rule="evenodd" clip-rule="evenodd" d="M74.1777 46.9145C74.2917 46.5123 74.5489 46.3791 74.1777 46.0835C73.7191 45.7226 74.4688 45.3713 74.3548 44.6591C74.1874 43.6295 73.0712 42.319 72.0084 42.1397C70.5404 41.8902 70.6156 42.3868 70.3487 43.5351C70.1618 44.3272 70.6204 44.6276 70.8849 45.255C71.0863 45.7347 71.6493 45.9624 71.7754 46.5002C71.8822 46.946 71.7609 48.1088 71.4794 48.46C70.8582 49.2304 69.9968 48.5448 69.9968 49.9741C70.3462 50.0323 72.0375 50.5434 71.3338 51.2484C71.1518 51.4301 70.2856 51.8395 70.9796 52.0793C71.4042 52.2246 71.1882 52.668 71.1882 53.058C72.0618 53.2324 73.2071 53.855 73.2046 52.3433C73.2046 51.3622 72.9644 50.3811 73.0833 49.4048C73.1464 49.1117 73.1804 48.8549 73.2605 48.5739C73.3333 48.3244 73.4327 48.1039 73.5274 47.8908C73.6366 47.6437 74.1267 47.6049 74.2699 47.3554L74.1801 46.9096L74.1777 46.9145ZM109.071 39.0195C108.442 39.3635 108.724 39.8989 108.418 40.4149C108.153 40.8606 107.882 40.5166 107.794 40.2089C107.709 39.9037 108.013 39.6178 107.913 39.2884C107.857 39.1091 107.428 38.8015 107.231 38.9323C106.86 39.1794 106.959 40.4488 107.353 40.6232C107.743 40.7976 107.792 40.7201 107.886 41.2167C107.95 41.5413 108.025 41.9362 108.185 42.2245C108.445 42.6896 109.177 42.5224 109.609 42.4304C109.852 42.3771 110.15 42.0597 110.082 41.7763C110.051 41.6455 109.825 41.1271 109.697 41.0932C109.697 40.8969 110.102 40.6256 110.23 40.4391C110.468 40.0975 110.167 39.7535 109.903 39.4894L109.071 39.0146V39.0195ZM100.432 35.2282C100.19 35.313 100 35.2912 99.7504 35.2597C99.5417 35.2331 99.1656 35.3494 99.0686 35.5262C98.9836 35.6788 99.0564 35.8169 99.2166 35.8823C99.3258 35.9259 99.4689 35.9938 99.5126 36.1197C99.5757 36.2941 99.6897 36.4928 99.8984 36.5049C100.141 36.5194 100.253 36.4952 100.461 36.3862C100.692 36.2651 100.791 36.0979 100.937 35.8823L100.432 35.2307V35.2282ZM88.2343 33.0141C88.2513 32.6531 88.3726 32.0644 87.8485 32.0644C87.4627 32.0644 85.9243 31.4031 86.5722 32.4205C86.8561 32.8663 87.0308 33.9225 86.8415 34.4094C86.5576 35.1386 86.1111 35.5189 86.8124 36.219C87.2273 36.6333 87.8242 36.9652 88.2683 37.3455C89.3602 38.2806 89.581 38.455 91.0296 37.847C91.9735 37.4521 92.7937 37.1299 92.4515 35.9453C92.3423 35.565 91.5659 35.6013 91.2334 35.6498C89.5155 35.9041 91.1315 34.1502 89.7775 33.9588C89.3942 33.9055 88.375 34.3077 88.0572 33.9903L88.2343 33.0116V33.0141ZM147.404 61.3309C147.12 61.2413 146.909 61.108 146.662 61.36C146.562 61.4617 146.453 61.6289 146.455 61.7766C146.455 61.8832 146.489 61.9995 146.516 62.1037C146.565 62.3072 146.671 62.6269 146.844 62.6972C147.011 62.765 147.239 62.7771 147.407 62.8159C147.683 62.8765 148.202 62.8668 148.416 62.6366C148.736 62.2878 148.465 61.8881 148.416 61.5392L147.407 61.3333L147.404 61.3309ZM150.796 72.0409C150.495 72.0166 150.068 71.7671 149.758 72.0409C149.666 72.1232 149.663 72.2492 149.581 72.3073C149.328 72.4818 148.972 72.443 148.69 72.5447C148.273 72.6949 148.273 73.71 148.394 74.0879C148.45 74.2599 148.549 74.5361 148.78 74.4149C148.921 74.3398 149.008 74.1799 149.105 74.0588C149.226 73.9086 149.581 73.6591 149.787 73.6421C149.988 73.6276 150.139 74.2114 150.471 74.2938C150.855 74.3907 151.658 74.0976 151.658 73.6397C151.658 73.475 151.413 73.2158 151.272 73.1358C151.022 72.9953 151.141 72.8379 151.182 72.632L150.796 72.0384V72.0409ZM142.508 60.89C142.393 60.844 142.357 60.8343 142.27 60.7713C142.163 60.6962 141.833 60.7083 141.707 60.8004C141.605 60.8755 141.588 61.0693 141.588 61.1855C141.588 61.4448 141.632 61.7645 141.884 61.8978C141.988 61.9535 142.071 61.9559 142.18 61.9874C142.311 62.0237 142.457 62.0262 142.595 62.0165C142.774 62.0044 142.677 61.9486 142.743 61.8372L142.505 60.8876L142.508 60.89ZM132.77 58.2567C132.578 58.1889 132.263 57.9927 132.057 58.0193C131.836 58.0484 131.421 58.2495 131.613 58.5232C131.739 58.7073 131.947 58.8357 132.146 58.9689C132.345 59.1022 132.328 59.1458 132.442 59.3251C132.496 59.4074 132.532 59.5479 132.62 59.5915C132.952 59.7538 133.267 59.6739 133.568 59.4728C133.685 59.3953 133.898 59.2718 133.925 59.1167C133.954 58.935 133.76 58.8478 133.687 58.7025L132.768 58.2591L132.77 58.2567ZM94.4776 144.884C94.7761 144.758 94.8902 144.409 94.8877 143.517C94.8853 140.479 93.9851 142.49 91.7988 141.65C89.5276 140.775 86.8463 141.349 85.7423 138.866C84.6188 136.342 84.3665 138.667 82.9518 138.541C82.2263 138.476 81.9036 137.626 81.5857 137.059C80.9112 135.855 80.0352 134.82 79.5062 133.59C79.215 132.914 79.3485 131.94 78.97 131.395C78.424 130.605 77.6864 130.775 77.3661 129.675C77.7179 129.019 78.3803 128.534 78.2542 127.805C78.1401 127.141 77.2593 127.005 77.6306 126.085C77.8004 125.661 78.4798 125.598 78.5502 125.222C78.6594 124.639 78.407 123.936 78.4289 123.323C78.4653 122.286 78.1474 122.076 77.1817 121.574C75.4807 120.692 76.2499 120.259 76.3178 118.638C76.3639 117.531 74.4519 118.834 74.003 119.026C73.1149 119.202 72.3214 118.352 71.6881 118.849C71.1082 119.304 72.1224 120.121 71.7779 120.809C70.8097 122.747 69.5334 119.813 68.0993 121.019C66.8181 122.095 66.4081 123.2 64.4814 123.486C62.152 123.832 61.2372 122.742 60.2351 121.116C59.7716 120.363 58.3788 120.7 57.6824 120.169C56.4037 119.195 50.7038 119.527 50.1142 118.544C48.9738 116.644 49.9031 116.707 47.5009 115.578C45.6325 114.701 46.5206 113.044 46.3095 111.574C44.3416 111.252 43.092 111.235 41.9151 109.5C40.384 107.24 42.4392 106.814 42.563 104.723C41.5608 101.736 37.067 102.279 34.9899 99.7157C34.4294 99.0229 34.6356 97.7898 34.0387 97.3126C31.6389 95.3964 25.0316 92.9036 24.2382 89.6647C23.9664 88.5503 24.6458 87.3754 22.9303 87.7073L18.6281 88.5431C14.6899 89.3062 10.3198 91.3459 8.89063 85.8226C8.19908 84.2697 8.79842 83.8361 9.15512 82.4383C9.49725 81.1011 7.83026 80.4179 7.87636 78.9087C7.91276 77.7071 7.64099 77.8888 7.19209 76.9513C6.60731 75.7352 7.49055 75.1441 8.28886 74.427C10.0432 72.85 10.2737 73.4217 9.82968 71.1009C9.70593 70.4493 10.6086 70.1464 10.8973 69.645C11.2856 68.9691 10.9313 68.3102 11.6374 67.5665C12.1979 66.9754 12.79 65.5776 13.3262 65.2215C14.2823 64.5843 15.6896 65.597 15.2553 63.9448C14.8549 62.7481 15.2723 61.7669 15.6678 60.6502C16.0124 59.6715 14.8331 59.1458 14.1513 58.6346C12.5546 57.4379 15.4907 54.7174 15.1558 53.0241C15.0491 52.479 15.1073 52.0115 15.629 51.6893C16.2429 51.3089 16.8252 51.4688 17.0218 50.5604C17.9147 50.3375 19.6739 49.6132 20.4334 49.0729C21.108 48.5933 21.2123 48.0264 21.7971 47.5879C22.5032 47.0574 22.8623 47.2706 23.6679 47.4377C24.6555 47.6437 24.92 47.4014 25.5363 46.6359C26.1575 45.8655 27.8803 46.9629 28.6228 46.2168C29.2707 45.5676 30.6586 43.4624 31.3211 43.2177C32.6023 42.7405 32.3766 42.3286 32.5367 41.1998C31.9083 40.0321 31.1828 38.4017 32.2674 37.2535C32.9589 36.5194 33.6602 35.1265 34.609 34.7583C35.4509 34.4336 36.7904 34.4676 37.4868 33.9831C38.205 33.4864 36.3536 31.4225 38.0473 31.4903C40.0346 31.5702 40.2554 31.4103 41.3983 29.7945C41.6312 29.4651 42.0219 28.0455 42.199 28.2199C42.9949 29.0145 43.0434 29.528 44.247 30.0295C44.9822 30.3372 45.8679 29.0024 46.8579 28.9588C49.6847 28.8352 45.7611 22.1684 45.5451 21.0953C43.5845 17.1901 41.8302 20.0487 39.2508 18.1931C38.6005 17.7231 38.5981 16.7226 37.6178 16.8292C36.2493 16.9794 36.1716 15.6155 34.5604 16.4464C33.8834 16.7953 32.4227 19.3801 31.8913 19.0894C31.292 18.7624 30.5956 15.6591 30.5519 14.9057C30.4669 13.4304 32.7964 10.1988 33.4248 8.70164C33.9562 7.43224 33.7063 5.96419 34.4609 4.78442L36.8923 0.983485C38.2171 -1.08777 38.2972 1.09977 38.5253 2.1681C38.5593 3.59254 38.9135 6.97438 39.9545 8.01364C40.8353 8.89302 40.6824 11.1775 42.4781 10.1479C43.5239 9.54952 45.089 9.42839 45.3874 10.9158C45.7708 12.8345 45.5815 12.1731 47.2291 12.694C48.8257 13.1978 48.8354 16.8994 50.6456 16.1339C52.2301 15.4629 51.6841 17.4542 52.9629 18.3578C53.4142 18.6776 54.8483 19.9252 55.1006 19.0967C55.2171 18.7188 54.9453 16.788 55.8116 17.2556C57.02 17.9096 58.4565 16.742 58.3643 18.7066C58.3206 19.6296 58.0658 22.3283 59.4659 22.1176C61.0722 22.3598 60.3831 21.667 61.0989 23.0963C62.0404 24.9761 63.7389 22.6941 63.7438 25.8822C63.7438 27.3986 65.3768 28.043 65.3792 29.5305C65.3792 31.7301 66.5245 31.2214 68.4075 30.7442C69.759 30.4026 69.0117 32.3212 68.6768 33.0891C67.6892 35.3421 65.0371 33.3241 63.8408 33.9249C62.5912 34.5499 63.853 35.3324 64.2582 35.8823C64.8551 36.6939 62.6688 36.4395 62.9527 37.3673C63.6346 39.5888 62.6907 38.7797 60.8174 39.0316C59.6333 39.1891 61.8366 40.0587 61.9166 40.0999C62.4529 40.3664 62.8096 41.3524 63.2827 41.7303C63.3264 42.2996 64.149 42.2463 63.9379 42.9464C63.5302 44.286 64.3747 44.0196 65.156 44.6082C65.9179 45.18 65.5005 46.4712 66.1072 47.0404C66.8036 47.6921 67.5242 45.4876 66.6386 44.7245C63.9306 42.3868 62.6761 40.6426 65.088 37.4255C66.1363 36.0252 67.5291 38.2612 68.7666 36.4419C69.8003 34.9206 69.9823 35.2597 71.3484 35.5795C72.2632 35.7927 73.2047 34.9618 74.4058 35.1604C76.6624 35.5335 75.898 38.2152 76.427 39.8771C76.6405 40.5432 79.5159 41.9871 80.2269 42.1881C81.3212 42.4982 83.0853 43.0384 81.7386 41.3548C79.9139 39.0704 81.6925 38.5229 83.0707 37.4666C84.7499 36.1779 85.7132 36.8707 87.3729 37.7888C87.749 38.6367 89.2316 41.224 90.0469 41.614C91.3087 42.2196 92.9562 40.9357 94.4388 41.4323C96.3873 42.084 102.053 40.3398 99.0055 38.4017C98.377 38.002 98.6027 36.5461 98.411 36.6503C96.8993 37.4788 96.0257 35.8993 94.9265 35.5601C94.5893 35.8363 94.1015 36.4734 93.6332 36.4468C92.9732 36.408 93.4828 35.7685 93.5435 35.4681C93.575 35.313 92.9951 34.8552 92.8592 34.6686C92.4345 34.0775 94.4315 34.1938 93.8977 33.392C93.4561 32.7306 93.0582 32.8978 93.0072 31.999C92.9684 31.3183 92.5243 30.8047 91.8182 30.7248C90.935 30.6254 91.2771 30.9501 90.8695 31.4976C90.1342 32.4811 88.6128 31.6187 89.5931 30.3129C90.3114 29.3536 89.1806 29.4869 88.7317 29.5135C88.1154 29.5474 88.0038 29.0605 87.4263 28.9515C87.0283 28.8764 84.9003 28.4355 85.8224 27.6772C86.298 27.2872 86.4727 27.1249 86.1184 26.6089C85.6768 25.9694 86.1936 25.3201 86.5018 24.7387C87.5694 23.7479 85.9704 22.1733 88.2222 22.6311C89.2 22.8298 89.069 20.2716 89.9401 19.8113C90.6802 19.4189 92.4297 20.4097 92.4637 21.1752C92.4879 21.7154 91.7794 24.1985 92.4952 24.1137C93.3663 24.0095 93.4925 22.4034 94.9872 23.4596C95.6399 23.9199 95.5768 24.4553 96.0864 24.8526C96.4455 25.1336 99.9664 25.7198 100.568 25.7392C105.018 25.8773 100.638 28.3628 102.441 29.4772C104.266 30.6036 102.628 31.8464 102.356 32.9486C101.794 33.0431 101.129 33.2466 100.488 33.2466C100.469 33.3048 100.478 33.2466 100.459 33.3072C99.1899 33.6269 100.437 34 101.143 33.9588C101.857 33.9177 102.57 33.4525 103.397 33.4525C103.856 33.4525 103.803 34.0678 104.793 33.8958C108.381 33.2708 105.331 37.4061 105.123 36.3886C104.586 33.7965 104.455 35.095 104.142 36.3596C103.672 38.254 103.422 37.7695 104.887 39.2375C105.994 40.3422 105.174 39.8334 105.096 40.8388C105.055 41.3621 106.261 41.5268 106.552 41.9653C106.882 42.4619 106.496 42.8349 106.85 43.271C108.367 45.146 105.7 48.5763 107.45 49.6519C108.791 50.478 107.357 52.1374 109.085 53.4189C110.684 54.6036 110.869 54.0997 112.587 54.0972C113.841 54.0972 112.441 55.6283 114.338 54.9572C115.518 54.5406 116.85 55.8366 117.19 56.9437C117.682 58.545 120.101 56.6215 118.823 58.9302C118.26 59.3541 117.566 61.0571 118.439 61.5417C118.99 61.8469 119.616 60.8004 120.339 61.2437C120.815 61.5344 120.055 62.5422 120.875 62.8765C122.712 63.6226 123.501 62.7771 125.032 64.565C126.117 65.8295 126.102 66.9172 128.179 66.7283C128.963 66.658 130.584 68.1236 130.938 66.9633C131.074 66.5199 130.521 66.2195 130.819 65.7762C131.203 65.2021 134.495 62.6245 135.09 63.516C135.752 64.5092 133.852 66.1784 135.776 67.3145C136.526 67.7554 137.851 68.1454 138.686 68.5282C139.324 68.8213 142.243 68.0316 142.483 67.4865C142.626 67.1619 142.44 66.7162 142.571 66.4182C142.794 65.9143 143.483 68.0292 144.737 67.5737C145.024 67.5737 146.324 67.5422 145.805 67.9298C145.419 68.2181 145.084 68.1769 144.946 68.7317C144.849 69.1241 145.691 69.0757 145.451 70.0956C145.31 70.6939 145.764 71.8107 146.431 71.0743C148.045 69.2913 146.97 71.6944 148.923 70.895C149.217 70.7739 149.59 68.7026 149.515 68.2835C149.343 67.3339 149.6 65.4589 150.255 64.7515C151.01 63.9327 150.061 62.9709 151.709 62.9709L151.767 62.9419C151.767 62.4307 151.949 62.0455 151.973 61.6071C152.048 60.3231 152.978 62.22 153.812 61.9608C155.761 61.3551 155.477 61.0257 154.671 59.5261C154.718 58.8914 154.769 57.8788 154.373 57.3604C153.635 56.3938 152.48 59.405 151.287 58.2834C149.389 56.5004 152.718 56.8056 153.361 56.2921C154.39 55.4732 153.521 54.9015 152.706 54.7489C151.236 54.4727 149.447 53.0871 151.041 51.6045C151.519 51.1612 153.177 50.5749 153.177 49.7924C152.218 49.7924 152.721 48.6127 153.145 48.7532C153.169 48.6587 153.235 48.5642 153.235 48.4552C153.14 48.4552 153.009 48.46 152.939 48.5158C152.386 48.1039 151.549 48.8525 151.129 48.5763C150.707 48.2977 151.173 47.2415 151.631 47.2415C152.509 47.2415 153.483 47.9877 154.422 48.0991C154.662 48.1282 154.196 49.0148 154.126 49.228C153.961 49.7246 155.967 50.8123 155.965 49.2571C155.965 48.242 154.718 48.087 154.718 47.9828C155.244 47.9828 156.346 48.0628 155.608 47.2706C155.39 47.0356 154.798 46.946 154.688 46.7958C154.497 46.5341 154.417 45.8316 154.599 45.6087C154.858 45.289 153.978 43.6417 155.22 44.5113C155.979 44.2933 156.901 44.9789 157.297 44.6276C157.615 44.3466 158.338 43.3946 158.542 43.2904C160.087 42.5176 158.576 44.9813 158.661 45.0419C159.801 45.834 157.212 46.3839 158.544 46.9702C159.816 47.5298 159.044 47.4474 159.435 48.5715C159.563 48.9421 161.056 49.3297 160.087 49.4896C158.408 49.7706 159.859 50.65 160.476 51.0037C161.06 51.338 161.536 51.9485 162.109 51.12C162.308 50.8317 162.926 49.4702 163.147 50.6137C163.545 52.6849 164.812 50.3133 165.581 51.2653C166.095 51.9 165.913 52.353 166.265 53.0168C166.624 53.6927 167.343 54.1239 166.92 54.9742C165.753 57.3216 171.468 56.6143 170.131 60.0155C169.723 61.0523 169.961 61.3915 169.805 62.2127C169.602 63.2931 168.917 64.5868 170.609 63.9036C173.086 62.9007 172.014 66.3382 172.453 67.581C173.103 69.427 174.44 66.3988 175.035 67.0747C175.629 67.7506 176.059 68.3659 176.757 69.0321C177.713 69.943 175.248 70.8974 174.622 71.5854C172.356 74.0879 177.231 73.1019 177.769 73.1843C179.053 73.5113 178.332 74.1751 177.801 75.1441C176.964 76.6703 176.311 78.0293 174.954 79.1534C173.957 79.9795 174.12 80.9678 174.156 82.0338C174.185 82.8986 174.166 83.9064 173.625 84.6162C172.717 85.808 171.502 86.6099 173.093 87.8817C174.214 88.7756 174.149 91.0649 174.375 92.3319C174.222 93.2331 174.04 94.6551 174.02 95.566C173.991 97.0195 174.525 96.2903 175.209 97.0776C176.042 98.0345 175.338 99.2337 176.16 100.312C177.175 101.634 178.502 103.972 178.657 105.622C178.898 108.165 178.063 110.055 177.951 112.478C177.655 115.477 175.937 117.587 175.94 120.641C175.94 122.567 175.765 124.014 174.877 125.717C174.062 127.277 173.365 128.689 173.368 130.496C173.319 130.697 173.28 130.898 173.246 131.102L171.349 129.876C169.808 129.203 168.49 128.614 169.153 131.005C169.67 132.875 167.505 132.429 166.721 133.885C165.416 136.315 166.02 138.74 166.848 141.216C167.702 143.772 169.466 146.267 167.745 148.932C166.362 150.271 163.839 151.49 162.08 152.321C159.117 153.719 156.181 153.372 154.754 156.868C153.635 159.61 155.116 162.532 156.334 164.969L156.931 167.757C154.936 168.089 153.621 168.317 151.59 168.089C149.183 167.818 148.178 168.709 146.397 170.051C145.8 170.502 144.087 169.065 143.369 168.808C141.134 168.46 140.928 168.886 139.778 167.03C138.7 165.296 136.965 167.726 135.534 167.273C134.891 167.069 134.262 165.674 133.869 165.7C132.576 165.792 132.433 168.52 130.428 167.929C128.601 167.391 129.191 164.38 128.259 163.45C127.623 162.815 126.456 163.997 125.915 162.977C124.34 160.012 120.596 165.32 119.356 163.576L116.445 159.484C115.68 157.808 112.917 156.807 112.701 155.363C112.548 154.322 114.215 149.847 114.091 149.724C113.856 149.489 110.517 149.145 110.024 149.133C108.595 149.099 103.747 149.501 102.813 148.396C102.073 147.524 102.905 146.424 101.444 145.993C100.124 145.603 97.5253 145.732 96.101 145.79L94.4728 144.901L94.4776 144.884Z" fill="#D8DA97" stroke="white" stroke-miterlimit="10"/>
<path d="M104 156C97.748 156 92.75 160.998 92.75 167.25C92.75 169.412 93.3945 171.082 94.5137 172.775L102.816 185.373C103.068 185.754 103.502 186 104 186C104.498 186 104.938 185.748 105.184 185.373L113.486 172.775C114.605 171.082 115.25 169.412 115.25 167.25C115.25 160.998 110.252 156 104 156ZM104 173.496C100.549 173.496 97.748 170.695 97.748 167.238C97.748 163.781 100.549 160.98 104 160.98C107.451 160.98 110.252 163.781 110.252 167.238C110.252 170.695 107.451 173.496 104 173.496Z" fill="#EE3624"/>
<g filter="url(#filter0_f_37_232)">
<ellipse cx="103.75" cy="187.5" rx="4.75" ry="1" fill="black" fill-opacity="0.6"/>
</g>
<path d="M150 107C143.748 107 138.75 111.998 138.75 118.25C138.75 120.412 139.395 122.082 140.514 123.775L148.816 136.373C149.068 136.754 149.502 137 150 137C150.498 137 150.938 136.748 151.184 136.373L159.486 123.775C160.605 122.082 161.25 120.412 161.25 118.25C161.25 111.998 156.252 107 150 107ZM150 124.496C146.549 124.496 143.748 121.695 143.748 118.238C143.748 114.781 146.549 111.98 150 111.98C153.451 111.98 156.252 114.781 156.252 118.238C156.252 121.695 153.451 124.496 150 124.496Z" fill="#EE3624"/>
<g filter="url(#filter1_f_37_232)">
<ellipse cx="149.75" cy="138.5" rx="4.75" ry="1" fill="black" fill-opacity="0.6"/>
</g>
</g>
<defs>
<filter id="filter0_f_37_232" x="96.5" y="184" width="14.5" height="7" filterUnits="userSpaceOnUse" color-interpolation-filters="sRGB">
<feFlood flood-opacity="0" result="BackgroundImageFix"/>
<feBlend mode="normal" in="SourceGraphic" in2="BackgroundImageFix" result="shape"/>
<feGaussianBlur stdDeviation="1.25" result="effect1_foregroundBlur_37_232"/>
</filter>
<filter id="filter1_f_37_232" x="142.5" y="135" width="14.5" height="7" filterUnits="userSpaceOnUse" color-interpolation-filters="sRGB">
<feFlood flood-opacity="0" result="BackgroundImageFix"/>
<feBlend mode="normal" in="SourceGraphic" in2="BackgroundImageFix" result="shape"/>
<feGaussianBlur stdDeviation="1.25" result="effect1_foregroundBlur_37_232"/>
</filter>
<clipPath id="clip0_37_232">
<rect width="447" height="614" fill="white"/>
</clipPath>
</defs>
</svg>
