<?xml version="1.0" encoding="UTF-8"?>
<svg id="Layer_2" data-name="Layer 2" xmlns="http://www.w3.org/2000/svg" viewBox="0 0 369.48 77.98">
  <defs>
    <style>
      .cls-1 {
        fill: #5cb247;
      }

      .cls-2 {
        fill: #e1ebb3;
      }
    </style>
  </defs>
  <g id="Layer_1-2" data-name="Layer 1">
    <g>
      <g>
        <circle class="cls-2" cx="38.99" cy="38.99" r="38.99"/>
        <g>
          <polygon class="cls-1" points="38.99 39.99 15.51 16.51 15.51 31.18 31.65 47.33 38.99 54.66 46.33 47.33 62.47 31.18 62.47 16.51 38.99 39.99"/>
          <polygon class="cls-1" points="25.88 61.47 15.51 61.47 15.51 36.69 25.88 47.07 25.88 61.47"/>
          <polygon class="cls-1" points="52.09 61.47 62.47 61.47 62.47 36.69 52.09 47.07 52.09 61.47"/>
        </g>
      </g>
      <g>
        <path class="cls-1" d="M146.96,25.07c5.02,0,9.05,1.65,12.08,4.95,3.03,3.3,4.55,7.69,4.55,13.17v26.87h-13.13v-25.74c0-2.22-.54-3.97-1.62-5.25-1.08-1.28-2.64-1.93-4.68-1.93-2.16,0-3.84,.73-5.03,2.19-1.2,1.46-1.79,3.47-1.79,6.04v24.69h-13.13v-25.74c0-2.22-.54-3.97-1.62-5.25-1.08-1.28-2.64-1.93-4.68-1.93-2.16,0-3.84,.73-5.03,2.19-1.2,1.46-1.79,3.47-1.79,6.04v24.69h-13.13V26.3h13.13v4.03c2.39-3.5,6.3-5.25,11.73-5.25,5.08,0,8.9,1.93,11.47,5.78,2.68-3.85,6.92-5.78,12.69-5.78Z"/>
        <path class="cls-1" d="M172.61,26.29v43.77h13.13V26.29h-13.13Z"/>
        <path class="cls-1" d="M187.05,14.56c0,2.16-.77,4.01-2.32,5.56-1.54,1.54-3.4,2.32-5.56,2.32s-4.01-.77-5.56-2.32c-1.54-1.55-2.32-3.4-2.32-5.56s.77-4.01,2.32-5.56c1.54-1.54,3.4-2.32,5.56-2.32s4.01,.77,5.56,2.32,2.32,3.4,2.32,5.56Z"/>
        <path class="cls-1" d="M244.39,25.07c5.02,0,9.05,1.65,12.08,4.95,3.03,3.3,4.55,7.69,4.55,13.17v26.87h-13.13v-25.74c0-2.22-.54-3.97-1.62-5.25-1.08-1.28-2.64-1.93-4.68-1.93-2.16,0-3.84,.73-5.03,2.19-1.2,1.46-1.79,3.47-1.79,6.04v24.69h-13.13v-25.74c0-2.22-.54-3.97-1.62-5.25-1.08-1.28-2.64-1.93-4.68-1.93-2.16,0-3.84,.73-5.03,2.19-1.2,1.46-1.79,3.47-1.79,6.04v24.69h-13.13V26.3h13.13v4.03c2.39-3.5,6.3-5.25,11.73-5.25,5.08,0,8.9,1.93,11.47,5.78,2.68-3.85,6.92-5.78,12.69-5.78Z"/>
        <path class="cls-1" d="M296.21,25.07c5.78,0,10.71,2.23,14.79,6.7,4.08,4.46,6.13,9.94,6.13,16.41s-2.04,11.95-6.13,16.41c-4.09,4.46-9.02,6.7-14.79,6.7s-9.95-1.78-13.04-5.34v4.11h-13.13V8.79h13.13V30.41c3.09-3.56,7.44-5.34,13.04-5.34Zm-10.11,30.9c1.95,1.93,4.45,2.89,7.48,2.89s5.53-.96,7.48-2.89c1.95-1.93,2.93-4.52,2.93-7.79s-.98-5.87-2.93-7.79c-1.96-1.93-4.45-2.89-7.48-2.89s-5.53,.96-7.48,2.89c-1.96,1.93-2.93,4.52-2.93,7.79s.98,5.86,2.93,7.79Z"/>
        <path class="cls-1" d="M356.35,26.3h13.13v43.77h-13.13v-4.11c-3.09,3.56-7.44,5.34-13.04,5.34s-10.71-2.23-14.79-6.7c-4.09-4.46-6.13-9.94-6.13-16.41s2.04-11.95,6.13-16.41c4.08-4.46,9.02-6.7,14.79-6.7s9.95,1.78,13.04,5.34v-4.11Zm-17.95,29.68c1.93,1.93,4.43,2.89,7.53,2.89s5.6-.96,7.53-2.89c1.93-1.93,2.89-4.52,2.89-7.79s-.96-5.87-2.89-7.79c-1.93-1.93-4.44-2.89-7.53-2.89s-5.6,.96-7.53,2.89c-1.93,1.93-2.89,4.52-2.89,7.79s.96,5.86,2.89,7.79Z"/>
      </g>
    </g>
  </g>
</svg>